<svg width="110" height="110" viewBox="0 0 110 110" xmlns="http://www.w3.org/2000/svg" xmlns:xlink="http://www.w3.org/1999/xlink"><title>Group 8</title><defs><circle id="b" cx="35" cy="35" r="35"/><filter x="-43.6%" y="-45%" width="187.1%" height="187.1%" filterUnits="objectBoundingBox" id="a"><feOffset dy="-1" in="SourceAlpha" result="shadowOffsetOuter1"/><feGaussianBlur stdDeviation="10" in="shadowOffsetOuter1" result="shadowBlurOuter1"/><feColorMatrix values="0 0 0 0 0.905882353 0 0 0 0 0.925490196 0 0 0 0 0.937254902 0 0 0 1 0" in="shadowBlurOuter1"/></filter><linearGradient x1="0%" y1="0%" y2="100%" id="c"><stop stop-color="#45E0A7" offset="0%"/><stop stop-color="#D5E969" offset="100%"/></linearGradient></defs><g fill="none" fill-rule="evenodd"><g transform="translate(20 21)"><use fill="#000" filter="url(#a)" xlink:href="#b"/><use fill="#FFF" xlink:href="#b"/></g><path d="M25.328 33.064c-.586 0-1.068-.202-1.444-.607a2.036 2.036 0 0 1-.565-1.436c0-.553.188-1.032.565-1.436.376-.404.858-.606 1.444-.606s1.067.202 1.444.606c.377.404.565.883.565 1.436 0 .553-.188 1.032-.565 1.436-.377.405-.858.607-1.444.607zM49 30.574c0 2.426-.795 4.532-2.386 6.32-1.59 1.787-3.558 2.83-5.902 3.127v5.298h4.018V48H23.32v-6.766H22v-5.49c0-.382.126-.701.377-.957.25-.255.565-.383.942-.383h4.018c.377 0 .69.128.942.383.251.256.377.575.377.958v5.489h-1.319v4.085h10.737v-5.362c-2.26-.383-4.133-1.457-5.62-3.223-1.485-1.766-2.228-3.82-2.228-6.16 0-2.638.92-4.893 2.762-6.765C34.83 21.936 37.048 21 39.644 21s4.804.936 6.625 2.809C48.089 25.68 49 27.936 49 30.574z" fill="url(#c)" transform="translate(20 21)"/></g></svg>