<svg width="110" height="110" viewBox="0 0 110 110" xmlns="http://www.w3.org/2000/svg" xmlns:xlink="http://www.w3.org/1999/xlink"><title>Group 9</title><defs><circle id="b" cx="35" cy="35" r="35"/><filter x="-43.6%" y="-45%" width="187.1%" height="187.1%" filterUnits="objectBoundingBox" id="a"><feOffset dy="-1" in="SourceAlpha" result="shadowOffsetOuter1"/><feGaussianBlur stdDeviation="10" in="shadowOffsetOuter1" result="shadowBlurOuter1"/><feColorMatrix values="0 0 0 0 0.905882353 0 0 0 0 0.925490196 0 0 0 0 0.937254902 0 0 0 1 0" in="shadowBlurOuter1"/></filter><linearGradient x1="0%" y1="0%" y2="100%" id="c"><stop stop-color="#EFBFD5" offset="0%"/><stop stop-color="#9D61FD" offset="100%"/></linearGradient></defs><g fill="none" fill-rule="evenodd"><g transform="translate(20 21)"><use fill="#000" filter="url(#a)" xlink:href="#b"/><use fill="#FFF" xlink:href="#b"/></g><path d="M38.833 38.538c-.729 0-1.402.181-2.018.543a4.465 4.465 0 0 0-1.497 1.414l-4.453-2.591a5.04 5.04 0 0 0 .338-.9 3.792 3.792 0 0 0-.078-2.22l4.661-2.697c.382.423.834.758 1.355 1.004.52.247 1.085.37 1.692.37 1.146 0 2.127-.414 2.943-1.242C42.592 31.39 43 30.394 43 29.23s-.408-2.16-1.224-2.988C40.96 25.414 39.979 25 38.833 25c-1.146 0-2.126.414-2.942 1.243-.816.828-1.224 1.824-1.224 2.988a3.528 3.528 0 0 0 .208 1.216l-4.661 2.697a4.267 4.267 0 0 0-1.355-1.005 3.902 3.902 0 0 0-1.692-.37c-1.146 0-2.127.414-2.943 1.243C23.408 33.841 23 34.837 23 36s.408 2.16 1.224 2.988c.816.829 1.797 1.243 2.943 1.243.468 0 .915-.08 1.34-.238.426-.159.821-.37 1.186-.635l-.026.027 5.052 2.935a2.071 2.071 0 0 0-.052.45c0 1.163.408 2.159 1.224 2.987.816.829 1.796 1.243 2.942 1.243 1.146 0 2.127-.414 2.943-1.243C42.592 44.93 43 43.933 43 42.77s-.408-2.16-1.224-2.988c-.816-.828-1.797-1.243-2.943-1.243zm0-11.846c.695 0 1.285.247 1.771.74.486.494.73 1.094.73 1.799a2.47 2.47 0 0 1-.73 1.798 2.393 2.393 0 0 1-1.77.74 2.393 2.393 0 0 1-1.772-.74 2.467 2.467 0 0 1-.729-1.798c0-.705.243-1.305.73-1.798a2.393 2.393 0 0 1 1.77-.74zM27.167 38.538a2.393 2.393 0 0 1-1.771-.74 2.467 2.467 0 0 1-.73-1.798c0-.705.244-1.304.73-1.798a2.393 2.393 0 0 1 1.77-.74 2.39 2.39 0 0 1 1.771.74c.487.494.73 1.093.73 1.798 0 .705-.243 1.304-.73 1.798a2.393 2.393 0 0 1-1.77.74zm11.666 6.77a2.393 2.393 0 0 1-1.77-.74 2.467 2.467 0 0 1-.73-1.799c0-.705.243-1.304.73-1.798a2.393 2.393 0 0 1 1.77-.74c.695 0 1.285.247 1.771.74a2.47 2.47 0 0 1 .73 1.798c0 .705-.244 1.305-.73 1.798a2.393 2.393 0 0 1-1.77.74z" fill="url(#c)" transform="translate(20 21)"/></g></svg>