<?xml version="1.0" encoding="UTF-8"?>
<svg width="110px" height="110px" viewBox="0 0 110 110" version="1.1" xmlns="http://www.w3.org/2000/svg" xmlns:xlink="http://www.w3.org/1999/xlink">
    <!-- Generator: Sketch 47.1 (45422) - http://www.bohemiancoding.com/sketch -->
    <title>Group 5</title>
    <desc>Created with Sketch.</desc>
    <defs>
        <circle id="path-1" cx="35" cy="35" r="35"></circle>
        <filter x="-43.6%" y="-45.0%" width="187.1%" height="187.1%" filterUnits="objectBoundingBox" id="filter-2">
            <feOffset dx="0" dy="-1" in="SourceAlpha" result="shadowOffsetOuter1"></feOffset>
            <feGaussianBlur stdDeviation="10" in="shadowOffsetOuter1" result="shadowBlurOuter1"></feGaussianBlur>
            <feColorMatrix values="0 0 0 0 0.905882353   0 0 0 0 0.925490196   0 0 0 0 0.937254902  0 0 0 1 0" type="matrix" in="shadowBlurOuter1"></feColorMatrix>
        </filter>
        <linearGradient x1="49.9572045%" y1="100.086059%" x2="49.9572045%" y2="0.15869191%" id="linearGradient-3">
            <stop stop-color="#FCB3A4" offset="0%"></stop>
            <stop stop-color="#DA5899" offset="100%"></stop>
        </linearGradient>
    </defs>
    <g id="Page-1" stroke="none" stroke-width="1" fill="none" fill-rule="evenodd">
        <g id="03.Ve_Chung_Toi" transform="translate(-189.000000, -1018.000000)">
            <g id="Group-5" transform="translate(209.000000, 1039.000000)">
                <g id="Oval">
                    <use fill="black" fill-opacity="1" filter="url(#filter-2)" xlink:href="#path-1"></use>
                    <use fill="#FFFFFF" fill-rule="evenodd" xlink:href="#path-1"></use>
                </g>
                <path d="M49,35.986608 C49,36.174108 48.9428718,36.337053 48.8286124,36.475446 C48.714356,36.613839 48.5693369,36.700893 48.3935551,36.736608 L45.6909171,41.504463 C45.7172855,41.584821 45.7304683,41.665179 45.7304683,41.745537 C45.7304683,41.924109 45.6755372,42.08259 45.565675,42.220983 C45.4558099,42.359376 45.3129909,42.446427 45.1372061,42.482142 L42.5927729,46.9955358 C42.6191414,47.0669646 42.6323241,47.1383925 42.6323241,47.2098213 C42.6323241,47.4151797 42.559816,47.5937493 42.414794,47.7455357 C42.2697749,47.8973222 42.0917989,47.9732143 41.8808601,47.9732143 C41.6611328,47.9732143 41.4809568,47.8928579 41.3403319,47.7321429 L36.0668952,47.7321429 C35.9174789,47.9107152 35.7285172,48 35.5000015,48 C35.2714828,48 35.0825211,47.9107152 34.9331048,47.7321429 L29.6728508,47.7321429 C29.5234375,47.9107152 29.3344729,48 29.1059571,48 C28.9038069,48 28.728028,47.92634 28.5786146,47.7790179 C28.4291983,47.6316957 28.3544931,47.4508938 28.3544931,47.2366071 C28.3544931,47.1651783 28.3720701,47.0758935 28.4072271,46.96875 L25.8627939,42.482142 C25.6870121,42.446427 25.5441901,42.359376 25.434325,42.220983 C25.3244628,42.08259 25.2695317,41.924109 25.2695317,41.745537 C25.2695317,41.665179 25.2827145,41.584821 25.3090829,41.504463 L22.5932619,36.736608 C22.4174794,36.691965 22.2746588,36.600447 22.1647949,36.462054 C22.0549311,36.323661 22,36.16518 22,35.986608 C22,35.799105 22.0593256,35.63616 22.1779785,35.497767 C22.2966314,35.359374 22.4438467,35.272323 22.6196288,35.236608 L25.2431633,30.629463 C25.2431633,30.620535 25.2409661,30.607143 25.2365719,30.589287 C25.2321776,30.571428 25.2299805,30.558036 25.2299805,30.549108 C25.2299805,30.227676 25.3793939,30 25.6782236,29.866071 L28.4335926,25.004463 C28.3984386,24.915177 28.3808586,24.834822 28.3808586,24.763392 C28.3808586,24.549105 28.4555668,24.368304 28.6049802,24.220983 C28.7543965,24.073659 28.9301753,24 29.1323256,24 C29.3608414,24 29.5541972,24.09375 29.712402,24.28125 L34.9331048,24.28125 C35.0737326,24.09375 35.2626943,24 35.5000015,24 C35.7373057,24 35.9262703,24.09375 36.0668952,24.28125 L41.3139664,24.28125 C41.4721683,24.09375 41.6655271,24 41.8940429,24 C42.0961931,24 42.271972,24.073659 42.4213883,24.220983 C42.5708017,24.368304 42.6455069,24.549105 42.6455069,24.763392 C42.6455069,24.816966 42.6279299,24.897321 42.5927729,25.004463 L45.3217764,29.799108 C45.5239267,29.808036 45.6953113,29.886159 45.8359391,30.033483 C45.976564,30.180804 46.046875,30.352677 46.046875,30.549108 C46.046875,30.665178 46.0161152,30.785715 45.9545898,30.910713 L48.4199236,35.25 C48.5869139,35.285715 48.7253417,35.372766 48.8352068,35.511162 C48.9450689,35.649555 49,35.808036 49,35.986608 Z M36.0141612,46.6875 L41.1425788,46.6875 L36.6337889,41.946429 L34.7485345,41.946429 L30.2397475,46.6875 L34.9858388,46.6875 C35.1440436,46.5446421 35.3154282,46.4732142 35.5000015,46.4732142 C35.6845718,46.4732142 35.8559564,46.5446421 36.0141612,46.6875 Z M23.4765625,35.8125 C23.4853516,35.848215 23.4897462,35.90625 23.4897462,35.986608 C23.4897462,36.075894 23.4809571,36.142857 23.4633789,36.1875 L26.2055661,41.008929 C26.223146,41.008929 26.2429201,41.013393 26.2648914,41.022321 C26.2868656,41.031249 26.311034,41.042412 26.3374024,41.055804 C26.3637709,41.069196 26.3857421,41.080356 26.4033191,41.089287 L28.8818356,38.424108 L28.8818356,33.776787 L26.4165048,31.178571 C26.3022455,31.250001 26.1748063,31.294644 26.0341785,31.3125 L23.4765625,35.8125 Z M34.9990245,25.3125 L29.8837896,25.3125 L32.3886716,27.991071 L39.6923818,25.3125 L36.0009755,25.3125 C35.8603507,25.455357 35.6933603,25.526787 35.5000015,25.526787 C35.3066397,25.526787 35.1396493,25.455357 34.9990245,25.3125 Z M44.2670915,41.544642 C44.27588,41.491071 44.2978512,41.441964 44.3330082,41.397321 L43.489259,40.486608 L43.2651375,41.544642 L44.2670915,41.544642 Z M42.8696284,41.544642 L43.1596696,40.138392 L39.8374039,36.575892 L35.9350588,40.6875 L36.7656252,41.544642 L42.8696284,41.544642 Z M41.7094725,46.4732142 L41.9204113,46.0982142 L42.7773432,41.946429 L37.1479486,41.946429 L41.538085,46.5401787 C41.6083989,46.504464 41.6655271,46.4821428 41.7094725,46.4732142 Z M29.6201169,46.6875 L29.6860365,46.6875 L34.1948236,41.946429 L29.2773447,41.946429 L29.2773447,46.4330358 L29.3300787,46.5133929 C29.4531265,46.5580359 29.549803,46.6160712 29.6201169,46.6875 Z M29.2773447,41.544642 L34.5771499,41.544642 L35.4208991,40.660713 L31.3471694,36.361608 L29.2773447,38.584821 L29.2773447,41.544642 Z M26.7329115,41.544642 L28.8818356,41.544642 L28.8818356,39.013392 L26.6669918,41.383929 C26.7021488,41.455359 26.72412,41.508927 26.7329115,41.544642 Z M26.7197258,30.495537 C26.7197258,30.504465 26.7219229,30.513393 26.7263172,30.522321 C26.7307144,30.531249 26.7329115,30.54018 26.7329115,30.549108 C26.7329115,30.691965 26.6977545,30.821427 26.6274406,30.9375 L28.8818356,33.308037 L28.8818356,29.705358 L26.7197258,30.495537 Z M29.2773447,29.558037 L29.2773447,33.723213 L31.2944325,35.825892 L35.2099603,31.620537 L32.270021,28.459821 L29.2773447,29.558037 Z M29.3300787,25.486608 L29.2773447,25.59375 L29.2773447,29.129463 L31.9799798,28.138392 L29.461915,25.446429 C29.4091781,25.464285 29.3652356,25.47768 29.3300787,25.486608 Z M41.0766592,25.3125 L40.8657234,25.3125 L32.6787098,28.3125 L35.4868158,31.325892 L41.0766592,25.3125 Z M35.4868158,31.901787 L31.5712879,36.120537 L35.6713861,40.392858 L39.5737312,36.28125 L35.4868158,31.901787 Z M31.0703139,36.080358 L29.2773447,34.191963 L29.2773447,37.995537 L31.0703139,36.080358 Z M35.6845718,40.955358 L35.1308608,41.544642 L36.2514655,41.544642 L35.6845718,40.955358 Z M40.1142594,36.294642 L43.2519547,39.65625 L44.992187,31.299108 L44.9526358,31.232142 L44.9394531,31.21875 L40.1142594,36.294642 Z M44.6494148,30.9375 C44.5791009,30.821427 44.5439469,30.691965 44.5439469,30.549108 L44.5439469,30.522321 L41.6962898,25.486608 C41.6523443,25.47768 41.5952161,25.455357 41.5249022,25.419642 L35.7636712,31.620537 L39.8505866,36 L44.6494148,30.9375 Z M28.8818356,29.276787 L28.8818356,26.290179 L26.7329115,30.066963 L28.8818356,29.276787 Z M28.8818356,41.946429 L26.7329115,41.946429 L28.8818356,45.7366071 L28.8818356,41.946429 Z M43.1860351,41.946429 L42.5532217,44.986608 L44.2670915,41.946429 L43.1860351,41.946429 Z M44.7944339,41.008929 L47.5234375,36.174108 C47.5058605,36.084822 47.497072,36.022323 47.497072,35.986608 C47.497072,35.97768 47.5102547,35.90625 47.5366202,35.772321 L45.2822282,31.808037 L43.5815441,40.004463 L44.5966809,41.102679 C44.6406263,41.075892 44.706543,41.044644 44.7944339,41.008929 Z" id="Page-1" fill="url(#linearGradient-3)"></path>
            </g>
        </g>
    </g>
</svg>