<?xml version="1.0" encoding="UTF-8"?>
<svg width="110px" height="110px" viewBox="0 0 110 110" version="1.1" xmlns="http://www.w3.org/2000/svg" xmlns:xlink="http://www.w3.org/1999/xlink">
    <!-- Generator: Sketch 47.1 (45422) - http://www.bohemiancoding.com/sketch -->
    <title>Group 8</title>
    <desc>Created with Sketch.</desc>
    <defs>
        <circle id="path-1" cx="35" cy="35" r="35"></circle>
        <filter x="-43.6%" y="-45.0%" width="187.1%" height="187.1%" filterUnits="objectBoundingBox" id="filter-2">
            <feOffset dx="0" dy="-1" in="SourceAlpha" result="shadowOffsetOuter1"></feOffset>
            <feGaussianBlur stdDeviation="10" in="shadowOffsetOuter1" result="shadowBlurOuter1"></feGaussianBlur>
            <feColorMatrix values="0 0 0 0 0.905882353   0 0 0 0 0.925490196   0 0 0 0 0.937254902  0 0 0 1 0" type="matrix" in="shadowBlurOuter1"></feColorMatrix>
        </filter>
        <linearGradient x1="0%" y1="0%" x2="100%" y2="100%" id="linearGradient-3">
            <stop stop-color="#45E0A7" offset="0%"></stop>
            <stop stop-color="#D5E969" offset="100%"></stop>
        </linearGradient>
    </defs>
    <g id="Page-1" stroke="none" stroke-width="1" fill="none" fill-rule="evenodd">
        <g id="03.Ve_Chung_Toi" transform="translate(-189.000000, -1230.000000)">
            <g id="Group-8" transform="translate(209.000000, 1251.000000)">
                <g id="Oval">
                    <use fill="black" fill-opacity="1" filter="url(#filter-2)" xlink:href="#path-1"></use>
                    <use fill="#FFFFFF" fill-rule="evenodd" xlink:href="#path-1"></use>
                </g>
                <path d="M25.327907,33.0638298 C24.7418574,33.0638298 24.2604671,32.8617028 23.8837209,32.4574448 C23.5069747,32.0531908 23.3186047,31.5744694 23.3186047,31.0212766 C23.3186047,30.4680837 23.5069747,29.9893624 23.8837209,29.5851084 C24.2604671,29.1808504 24.7418574,28.9787234 25.327907,28.9787234 C25.9139566,28.9787234 26.3953488,29.1808504 26.772093,29.5851084 C27.1488372,29.9893624 27.3372093,30.4680837 27.3372093,31.0212766 C27.3372093,31.5744694 27.1488372,32.0531908 26.772093,32.4574448 C26.3953488,32.8617028 25.9139566,33.0638298 25.327907,33.0638298 Z M49,30.5744681 C49,33.0000123 48.2046579,35.1063748 46.6139535,36.893617 C45.0232491,38.6808592 43.0558247,39.7234029 40.7116279,40.0212766 L40.7116279,45.3191489 L44.7302326,45.3191489 L44.7302326,48 L23.3186047,48 L23.3186047,41.2340426 L22,41.2340426 L22,35.7446809 C22,35.3617021 22.1255801,35.0425532 22.3767442,34.787234 C22.6279082,34.5319149 22.9418585,34.4042553 23.3186047,34.4042553 L27.3372093,34.4042553 C27.7139535,34.4042553 28.027907,34.5319149 28.2790698,34.787234 C28.5302326,35.0425532 28.655814,35.3617021 28.655814,35.7446809 L28.655814,41.2340426 L27.3372093,41.2340426 L27.3372093,45.3191489 L38.0744186,45.3191489 L38.0744186,39.9574468 C35.8139414,39.5744681 33.940705,38.5000075 32.4546492,36.7340446 C30.9685973,34.9680776 30.2255814,32.9149072 30.2255814,30.5744681 C30.2255814,27.9361552 31.1465009,25.680862 32.9883721,23.8085106 C34.8302433,21.9361593 37.0488225,21 39.644186,21 C42.2395496,21 44.4476644,21.9361593 46.2686026,23.8085106 C48.0895449,25.680862 49,27.9361552 49,30.5744681 Z" id="Page-1" fill="url(#linearGradient-3)"></path>
            </g>
        </g>
    </g>
</svg>