<?xml version="1.0" encoding="UTF-8"?>
<svg width="110px" height="110px" viewBox="0 0 110 110" version="1.1" xmlns="http://www.w3.org/2000/svg" xmlns:xlink="http://www.w3.org/1999/xlink">
    <!-- Generator: Sketch 47.1 (45422) - http://www.bohemiancoding.com/sketch -->
    <title>Group 6</title>
    <desc>Created with Sketch.</desc>
    <defs>
        <circle id="path-1" cx="35" cy="35" r="35"></circle>
        <filter x="-43.6%" y="-45.0%" width="187.1%" height="187.1%" filterUnits="objectBoundingBox" id="filter-2">
            <feOffset dx="0" dy="-1" in="SourceAlpha" result="shadowOffsetOuter1"></feOffset>
            <feGaussianBlur stdDeviation="10" in="shadowOffsetOuter1" result="shadowBlurOuter1"></feGaussianBlur>
            <feColorMatrix values="0 0 0 0 0.905882353   0 0 0 0 0.925490196   0 0 0 0 0.937254902  0 0 0 1 0" type="matrix" in="shadowBlurOuter1"></feColorMatrix>
        </filter>
        <linearGradient x1="326.519097%" y1="0%" x2="50%" y2="100%" id="linearGradient-3">
            <stop stop-color="#357FC7" offset="0%"></stop>
            <stop stop-color="#41BBEC" offset="100%"></stop>
        </linearGradient>
    </defs>
    <g id="Page-1" stroke="none" stroke-width="1" fill="none" fill-rule="evenodd">
        <g id="03.Ve_Chung_Toi" transform="translate(-189.000000, -1124.000000)">
            <g id="Group-6" transform="translate(209.000000, 1145.000000)">
                <g id="Oval">
                    <use fill="black" fill-opacity="1" filter="url(#filter-2)" xlink:href="#path-1"></use>
                    <use fill="#FFFFFF" fill-rule="evenodd" xlink:href="#path-1"></use>
                </g>
                <path d="M41.8561151,39.4875356 C42.812954,39.8577907 43.5761384,40.4478764 44.1456813,41.2578101 C44.7152285,42.0677437 45,42.9817979 45,44 L43.0863309,44 L26,44 C26,42.3338509 26.6151035,41.0611175 27.8453237,40.1817609 C28.3009607,39.8577876 29.4172574,39.4875356 31.1942446,39.0710004 C32.2877742,38.9321553 32.8800974,38.6313259 32.971223,38.1685075 C33.016788,37.9833793 33.0395683,37.4511473 33.0395683,36.5717893 C33.0395683,36.4329443 32.9940033,36.3172386 32.9028777,36.2246767 C32.720622,36.0395485 32.5383708,35.7155796 32.3561151,35.2527613 C32.2649895,34.8825048 32.1738595,34.327129 32.0827338,33.5866206 C31.9004782,33.6329037 31.7523974,33.5634812 31.6384914,33.378353 C31.5245811,33.1932248 31.4334554,32.9502481 31.3651101,32.6494142 C31.2967604,32.3485847 31.2625899,32.1750306 31.2625899,32.1287475 C31.0803343,31.1105444 31.1486796,30.6245912 31.4676259,30.6708743 C31.3309353,30.4857461 31.2170249,30.046076 31.1258993,29.3518463 C30.9892086,28.3336433 31.057554,27.4311593 31.3309353,26.6443676 C31.6498816,25.7650097 32.2194201,25.0939326 33.0395683,24.6311143 C33.8597166,24.1682959 34.7481971,23.9600283 35.705036,24.0063115 C36.6163099,24.0525947 37.4478395,24.3302803 38.1996425,24.8393819 C38.951441,25.3484834 39.4640288,26.0426998 39.7374101,26.9220577 C39.9652307,27.5700043 39.9880111,28.4724883 39.8057554,29.6295364 C39.7146298,30.1849211 39.6234997,30.5320293 39.5323741,30.6708743 C39.6690647,30.6245912 39.7715805,30.6708743 39.8399302,30.8097194 C39.9082756,30.9485645 39.9310559,31.1221186 39.9082712,31.3303906 C39.8854909,31.5386582 39.8627106,31.723782 39.8399302,31.8857708 C39.8171456,32.0477552 39.7829751,32.1750306 39.7374101,32.2675925 L39.6007194,32.7535502 C39.5551544,33.0775235 39.4754189,33.3089305 39.3615086,33.4477755 C39.2476026,33.5866206 39.0995218,33.6329037 38.9172662,33.5866206 C38.8261405,34.6048236 38.6666696,35.3221838 38.4388489,35.738719 C38.4388489,35.7850022 38.3591134,35.9007034 38.1996425,36.0858316 C38.0401671,36.2709599 37.9604317,36.3866611 37.9604317,36.4329443 L37.9604317,37.1965921 C37.9604317,37.6594105 38.0059967,38.0065187 38.0971223,38.2379301 C38.1882479,38.4693414 38.5071899,38.6544652 39.0539568,38.7933103 C39.3729031,38.9321553 39.8399259,39.047861 40.4550338,39.1404229 C41.0701461,39.2329848 41.5371688,39.3486905 41.8561151,39.4875356 Z M28.0691964,38 L28.1383929,38 L28,38 L28.0691964,38 Z M27.9172605,37.96875 C27.2515418,38.329864 26.680933,38.7586777 26.2054204,39.2552083 C25.9676618,39.7517386 25.8012344,40 25.7061337,40 L23.9229669,40 L20,40 C20,38.6458247 20.7132594,37.743057 22.1398001,37.2916667 C22.1873514,37.2916667 22.4013296,37.2465263 22.7817402,37.15625 C23.1621512,37.0659737 23.4950055,36.975693 23.7803136,36.8854167 C24.0656216,36.7951403 24.232049,36.6822917 24.2796003,36.546875 C24.3271515,36.4114583 24.3509269,36.0503487 24.3509269,35.4635417 C23.3998998,35.553818 22.6390896,35.3958333 22.0684735,34.9895833 L22.3537801,34.1770833 C22.4013314,34.086807 22.4488822,33.9626743 22.4964335,33.8046853 C22.5439847,33.6467007 22.5677602,33.522568 22.5677602,33.4322917 C22.6153114,33.0260417 22.6390868,32.394103 22.6390868,31.5364583 C22.6390868,29.8663093 22.8292896,28.760421 23.2097002,28.21875 C23.732765,27.4062457 24.636229,27 25.9201137,27 C27.869717,27 28.9871605,27.8350593 29.2724672,29.5052083 C29.3675679,29.9114583 29.4151206,30.509545 29.4151206,31.2994813 C29.4151206,32.0894133 29.4151206,32.5746513 29.4151206,32.7552083 C29.4151206,33.251739 29.5339953,33.7934013 29.7717539,34.3802083 C29.9619599,34.7413223 30.0332866,34.944443 29.9857339,34.9895833 L29.5577739,35.1927083 C29.3200153,35.2829847 28.9158384,35.3732653 28.3452205,35.4635417 C27.9648085,35.4635417 27.7508331,35.4861097 27.7032805,35.53125 L27.7032805,36.2760417 C27.7032805,36.546875 27.8221552,36.7048597 28.0599138,36.75 C28.1550145,36.7951403 28.3333335,36.8402763 28.5948616,36.8854167 C28.8563942,36.930557 29.0822612,36.986977 29.2724672,37.0546853 C29.4626732,37.122398 29.6053265,37.2013903 29.7004273,37.2916667 C29.8430806,37.517364 29.7955325,37.6302083 29.5577739,37.6302083 C28.8920553,37.7204847 28.3927731,37.8333333 28.0599138,37.96875 L27.9885871,37.96875 L27.6319538,38.1041667 L27.7032805,38.1041667 C27.7983812,38.0590263 27.8697078,38.0138903 27.9172605,37.96875 Z M48.7697844,37.2965644 C50.2566009,37.7471385 51,38.6482736 51,40 L45.244605,40 C45.1486833,39.6845977 44.7649918,39.2565578 44.093526,38.7158681 C43.2781753,38.1301223 42.6067187,37.7921928 42.0791377,37.7020798 C42.0311746,37.7020798 41.9112736,37.7020798 41.7194255,37.7020798 C41.5275775,37.7020798 41.371703,37.6795526 41.2517974,37.6344939 C41.1318964,37.5894352 41.0959229,37.4993221 41.143886,37.3641503 C41.2398077,37.2289785 41.5515568,37.0938067 42.0791377,36.958635 C42.7985667,36.7784045 43.1822536,36.6207055 43.2302167,36.4855337 L43.2302167,35.5393313 C42.942447,35.5393313 42.5107969,35.4942726 41.9352528,35.4041595 C41.6474831,35.3140464 41.3836972,35.223929 41.143886,35.1338159 C40.952038,35.0437029 40.952038,34.7958865 41.143886,34.3903712 C41.2877709,34.0749689 41.4076765,32.9260218 41.5035982,30.9434908 C41.5995199,28.9609598 42.2469973,27.7444268 43.446044,27.2938528 C44.6450908,26.8432787 45.796156,26.9108646 46.899281,27.4966104 C47.8585166,28.0373019 48.3381298,29.02855 48.3381298,30.4703896 C48.3381298,30.65062 48.3261402,30.9885452 48.3021563,31.4841779 C48.278177,31.9798107 48.2661874,32.3627945 48.2661874,32.633138 C48.2661874,32.9034816 48.3141505,33.241411 48.4100722,33.6469264 C48.505994,34.0524417 48.6498788,34.3903712 48.8417269,34.6607147 C48.9856117,34.8860039 48.9856117,35.0211714 48.8417269,35.0662301 C48.7937637,35.1112888 48.7218213,35.1338159 48.6258996,35.1338159 C48.5299778,35.1338159 48.4580354,35.1563431 48.4100722,35.2014018 L47.546763,35.4041595 C47.354915,35.4492182 47.0431659,35.4717454 46.6115113,35.4717454 C46.6115113,36.192663 46.6354906,36.5756468 46.6834537,36.6207055 C46.8273386,36.7558773 47.019182,36.8685219 47.2589932,36.958635 C47.4988044,37.048748 47.7745799,37.1163339 48.0863336,37.1613926 C48.3980826,37.2064513 48.6258996,37.2515057 48.7697844,37.2965644 Z" id="Page-1" fill="url(#linearGradient-3)"></path>
            </g>
        </g>
    </g>
</svg>