<?xml version="1.0" encoding="UTF-8"?>
<svg width="110px" height="110px" viewBox="0 0 110 110" version="1.1" xmlns="http://www.w3.org/2000/svg" xmlns:xlink="http://www.w3.org/1999/xlink">
    <!-- Generator: Sketch 47.1 (45422) - http://www.bohemiancoding.com/sketch -->
    <title>Group 11</title>
    <desc>Created with Sketch.</desc>
    <defs>
        <circle id="path-1" cx="35" cy="35" r="35"></circle>
        <filter x="-43.6%" y="-45.0%" width="187.1%" height="187.1%" filterUnits="objectBoundingBox" id="filter-2">
            <feOffset dx="0" dy="-1" in="SourceAlpha" result="shadowOffsetOuter1"></feOffset>
            <feGaussianBlur stdDeviation="10" in="shadowOffsetOuter1" result="shadowBlurOuter1"></feGaussianBlur>
            <feColorMatrix values="0 0 0 0 0.905882353   0 0 0 0 0.925490196   0 0 0 0 0.937254902  0 0 0 1 0" type="matrix" in="shadowBlurOuter1"></feColorMatrix>
        </filter>
        <linearGradient x1="0%" y1="0%" x2="100%" y2="100%" id="linearGradient-3">
            <stop stop-color="#FFA7E7" offset="0%"></stop>
            <stop stop-color="#EA6362" offset="100%"></stop>
        </linearGradient>
    </defs>
    <g id="Page-1" stroke="none" stroke-width="1" fill="none" fill-rule="evenodd">
        <g id="03.Ve_Chung_Toi" transform="translate(-698.000000, -1124.000000)">
            <g id="Group-11" transform="translate(718.000000, 1145.000000)">
                <g id="Oval-Copy-2">
                    <use fill="black" fill-opacity="1" filter="url(#filter-2)" xlink:href="#path-1"></use>
                    <use fill="#FFFFFF" fill-rule="evenodd" xlink:href="#path-1"></use>
                </g>
                <path d="M32.15625,35.4884012 C32.15625,36.5400942 32.531247,37.4371161 33.28125,38.1794877 C34.031253,38.9218594 34.937496,39.2930407 36,39.2930407 C37.062504,39.2930407 37.968747,38.9218594 38.71875,38.1794877 C39.468753,37.4371161 39.84375,36.5400942 39.84375,35.4884012 C39.84375,34.4367083 39.468753,33.5396864 38.71875,32.7973148 C37.968747,32.0549431 37.062504,31.6837617 36,31.6837617 C34.937496,31.6837617 34.031253,32.0549431 33.28125,32.7973148 C32.531247,33.5396864 32.15625,34.4367083 32.15625,35.4884012 Z M29.4375,34.0732594 C29.593752,33.3154228 29.874999,32.6194581 30.28125,31.9853505 C30.687501,31.3512399 31.179684,30.8022019 31.757814,30.3382185 C32.335941,29.8742351 32.988279,29.5069229 33.714843,29.2362642 C34.44141,28.9656085 35.203122,28.8302836 36,28.8302836 C36.921879,28.8302836 37.792965,29.0081403 38.613282,29.3638596 C39.433599,29.7195789 40.148433,30.1912889 40.757814,30.7790014 C41.039064,31.0573896 41.378904,31.1965808 41.777343,31.1965808 C42.175782,31.1965808 42.515625,31.0573896 42.796875,30.7790014 C43.078125,30.5006101 43.21875,30.1680943 43.21875,29.781442 C43.21875,29.3947896 43.078125,29.0622738 42.796875,28.7838826 C42.359373,28.3508322 41.882814,27.9603195 41.367186,27.6123327 C40.851561,27.2643459 40.308597,26.9704956 39.738282,26.7307699 C39.167967,26.4910472 38.56641,26.3093213 37.933593,26.1855922 C37.300779,26.061866 36.656253,26 36,26 C34.921869,26 33.898443,26.1623917 32.929686,26.4871809 C31.960932,26.8119702 31.074222,27.2720784 30.269532,27.8675234 C29.464839,28.4629685 28.769535,29.1666627 28.183593,29.9786329 C27.597654,30.7906031 27.14844,31.6760233 26.8359375,32.6349231 L24,32.6349231 L24,35.4884012 L27.84375,35.4884012 C28.437504,35.4884012 28.839843,35.3105445 29.050782,34.9548252 C29.261721,34.5991029 29.390625,34.3052526 29.4375,34.0732594 Z M44.15625,35.4884012 C43.562496,35.4884012 43.160157,35.6701242 42.949218,36.033579 C42.738279,36.3970308 42.609375,36.6947503 42.5625,36.9267406 C42.406248,37.6691122 42.125001,38.3573444 41.71875,38.991452 C41.312499,39.6255625 40.820316,40.1784668 40.242186,40.6501827 C39.664059,41.1218987 39.011721,41.4892138 38.285157,41.752137 C37.55859,42.0150602 36.796878,42.1465204 36,42.1465204 C35.078121,42.1465204 34.207035,41.9725285 33.386718,41.6245416 C32.566401,41.2765548 31.851567,40.8009816 31.242186,40.1978011 C30.960936,39.9194128 30.621096,39.7802217 30.222657,39.7802217 C29.824218,39.7802217 29.484375,39.9194128 29.203125,40.1978011 C28.921875,40.4761923 28.78125,40.8125744 28.78125,41.2069593 C28.78125,41.6013441 28.921875,41.9377292 29.203125,42.2161174 C29.640627,42.6491681 30.117186,43.0358145 30.632814,43.3760685 C31.148439,43.7163225 31.691403,44.0063074 32.261718,44.246032 C32.832033,44.4857562 33.43359,44.6713466 34.066407,44.8028083 C34.699221,44.9342701 35.343747,45 36,45 C37.078131,45 38.101557,44.833742 39.070314,44.5012209 C40.039068,44.1687 40.925778,43.7085909 41.730468,43.1208793 C42.535161,42.5331677 43.230465,41.829471 43.816407,41.0097683 C44.402346,40.1900656 44.85156,39.3007792 45.164064,38.3418794 L48,38.3418794 L48,35.4884012 L44.15625,35.4884012 Z" id="Page-1" fill="url(#linearGradient-3)"></path>
            </g>
        </g>
    </g>
</svg>