<?xml version="1.0" encoding="UTF-8"?>
<svg width="110px" height="110px" viewBox="0 0 110 110" version="1.1" xmlns="http://www.w3.org/2000/svg" xmlns:xlink="http://www.w3.org/1999/xlink">
    <!-- Generator: Sketch 47.1 (45422) - http://www.bohemiancoding.com/sketch -->
    <title>Group 9</title>
    <desc>Created with Sketch.</desc>
    <defs>
        <circle id="path-1" cx="35" cy="35" r="35"></circle>
        <filter x="-43.6%" y="-45.0%" width="187.1%" height="187.1%" filterUnits="objectBoundingBox" id="filter-2">
            <feOffset dx="0" dy="-1" in="SourceAlpha" result="shadowOffsetOuter1"></feOffset>
            <feGaussianBlur stdDeviation="10" in="shadowOffsetOuter1" result="shadowBlurOuter1"></feGaussianBlur>
            <feColorMatrix values="0 0 0 0 0.905882353   0 0 0 0 0.925490196   0 0 0 0 0.937254902  0 0 0 1 0" type="matrix" in="shadowBlurOuter1"></feColorMatrix>
        </filter>
        <linearGradient x1="0%" y1="0%" x2="100%" y2="100%" id="linearGradient-3">
            <stop stop-color="#EFBFD5" offset="0%"></stop>
            <stop stop-color="#9D61FD" offset="100%"></stop>
        </linearGradient>
    </defs>
    <g id="Page-1" stroke="none" stroke-width="1" fill="none" fill-rule="evenodd">
        <g id="03.Ve_Chung_Toi" transform="translate(-698.000000, -1018.000000)">
            <g id="Group-9" transform="translate(718.000000, 1039.000000)">
                <g id="Oval-Copy">
                    <use fill="black" fill-opacity="1" filter="url(#filter-2)" xlink:href="#path-1"></use>
                    <use fill="#FFFFFF" fill-rule="evenodd" xlink:href="#path-1"></use>
                </g>
                <path d="M38.8333333,38.5384615 C38.1041633,38.5384615 37.4314267,38.7191492 36.8151033,39.080528 C36.19878,39.4419102 35.6996533,39.9134582 35.3177067,40.4951923 L30.8645833,37.9038462 C31.0034733,37.6217926 31.11632,37.3221154 31.2031267,37.0048077 C31.28993,36.6875 31.3333333,36.3525652 31.3333333,36 C31.3333333,35.7884615 31.3159733,35.5813298 31.28125,35.3786049 C31.2465267,35.17588 31.1944433,34.9775652 31.125,34.7836538 L35.78646,32.0865385 C36.1684033,32.5096188 36.61979,32.8445502 37.1406267,33.0913462 C37.66146,33.3381422 38.22569,33.4615385 38.8333333,33.4615385 C39.9791733,33.4615385 40.9600667,33.0472785 41.77604,32.2187483 C42.5920167,31.3902215 43,30.3942375 43,29.2307692 C43,28.0673009 42.5920167,27.0713169 41.77604,26.2427902 C40.9600667,25.41426 39.9791733,25 38.8333333,25 C37.6874933,25 36.7066,25.41426 35.8906267,26.2427902 C35.07465,27.0713169 34.6666667,28.0673009 34.6666667,29.2307692 C34.6666667,29.4423077 34.6840267,29.6494394 34.71875,29.8521643 C34.7534733,30.0548892 34.8055567,30.253204 34.875,30.4471154 L30.21354,33.1442308 C29.8315967,32.7211505 29.38021,32.3862191 28.8593733,32.1394231 C28.33854,31.8926271 27.77431,31.7692308 27.1666667,31.7692308 C26.0208277,31.7692308 25.0399347,32.1834908 24.2239583,33.0120209 C23.407982,33.8405477 23,34.8365317 23,36 C23,37.1634683 23.407982,38.1594523 24.2239583,38.9879791 C25.0399347,39.8165092 26.0208277,40.2307692 27.1666667,40.2307692 C27.63542,40.2307692 28.0824633,40.151444 28.5078133,39.9927902 C28.9331633,39.8341329 29.3281233,39.6225978 29.6927067,39.3581748 L29.6666667,39.3846154 L34.71875,42.3197132 C34.70139,42.3902249 34.6883667,42.4651434 34.6796867,42.544472 C34.6710067,42.6237972 34.6666667,42.6987191 34.6666667,42.7692308 C34.6666667,43.9326981 35.07465,44.9286817 35.8906267,45.7572115 C36.7066,46.5857414 37.6874933,47 38.8333333,47 C39.9791733,47 40.9600667,46.5857414 41.77604,45.7572115 C42.5920167,44.9286817 43,43.9326981 43,42.7692308 C43,41.6057625 42.5920167,40.6097785 41.77604,39.7812517 C40.9600667,38.9527215 39.9791733,38.5384615 38.8333333,38.5384615 Z M38.8333333,26.6923077 C39.52778,26.6923077 40.1180533,26.9391003 40.6041667,27.4326923 C41.09028,27.9262843 41.3333333,28.5256388 41.3333333,29.2307692 C41.3333333,29.9358997 41.09028,30.5352542 40.6041667,31.0288462 C40.1180533,31.5224382 39.52778,31.7692308 38.8333333,31.7692308 C38.1388867,31.7692308 37.5486133,31.5224382 37.0625,31.0288462 C36.5763867,30.5352542 36.3333333,29.9358997 36.3333333,29.2307692 C36.3333333,28.5256388 36.5763867,27.9262843 37.0625,27.4326923 C37.5486133,26.9391003 38.1388867,26.6923077 38.8333333,26.6923077 Z M27.1666667,38.5384615 C26.47222,38.5384615 25.881947,38.2916689 25.3958333,37.7980769 C24.9097197,37.3044849 24.6666667,36.7051305 24.6666667,36 C24.6666667,35.2948695 24.9097197,34.6955151 25.3958333,34.2019231 C25.881947,33.7083311 26.47222,33.4615385 27.1666667,33.4615385 C27.8611133,33.4615385 28.4513867,33.7083311 28.9375,34.2019231 C29.4236133,34.6955151 29.6666667,35.2948695 29.6666667,36 C29.6666667,36.7051305 29.4236133,37.3044849 28.9375,37.7980769 C28.4513867,38.2916689 27.8611133,38.5384615 27.1666667,38.5384615 Z M38.8333333,45.3076923 C38.1388867,45.3076923 37.5486133,45.0609 37.0625,44.5673077 C36.5763867,44.0737154 36.3333333,43.4743612 36.3333333,42.7692308 C36.3333333,42.0641003 36.5763867,41.4647458 37.0625,40.9711538 C37.5486133,40.4775618 38.1388867,40.2307692 38.8333333,40.2307692 C39.52778,40.2307692 40.1180533,40.4775618 40.6041667,40.9711538 C41.09028,41.4647458 41.3333333,42.0641003 41.3333333,42.7692308 C41.3333333,43.4743612 41.09028,44.0737154 40.6041667,44.5673077 C40.1180533,45.0609 39.52778,45.3076923 38.8333333,45.3076923 Z" id="Page-1" fill="url(#linearGradient-3)"></path>
            </g>
        </g>
    </g>
</svg>