<svg width="110" height="110" viewBox="0 0 110 110" xmlns="http://www.w3.org/2000/svg" xmlns:xlink="http://www.w3.org/1999/xlink"><title>Group 5</title><defs><circle id="b" cx="35" cy="35" r="35"/><filter x="-43.6%" y="-45%" width="187.1%" height="187.1%" filterUnits="objectBoundingBox" id="a"><feOffset dy="-1" in="SourceAlpha" result="shadowOffsetOuter1"/><feGaussianBlur stdDeviation="10" in="shadowOffsetOuter1" result="shadowBlurOuter1"/><feColorMatrix values="0 0 0 0 0.905882353 0 0 0 0 0.925490196 0 0 0 0 0.937254902 0 0 0 1 0" in="shadowBlurOuter1"/></filter><linearGradient x1="49.957%" y1="100.086%" x2="49.957%" y2=".159%" id="c"><stop stop-color="#FCB3A4" offset="0%"/><stop stop-color="#DA5899" offset="100%"/></linearGradient></defs><g fill="none" fill-rule="evenodd"><g transform="translate(20 21)"><use fill="#000" filter="url(#a)" xlink:href="#b"/><use fill="#FFF" xlink:href="#b"/></g><path d="M49 35.987c0 .187-.057.35-.171.488a.74.74 0 0 1-.435.262l-2.703 4.767a.77.77 0 0 1-.125.717.71.71 0 0 1-.429.261l-2.544 4.514c.026.071.04.142.04.214a.75.75 0 0 1-.218.536.71.71 0 0 1-.534.227c-.22 0-.4-.08-.54-.24h-5.274A.708.708 0 0 1 35.5 48a.708.708 0 0 1-.567-.268h-5.26a.708.708 0 0 1-.567.268.727.727 0 0 1-.527-.221.732.732 0 0 1-.225-.542c0-.072.018-.161.053-.268l-2.544-4.487a.744.744 0 0 1-.593-.737c0-.08.013-.16.04-.24l-2.717-4.768a.775.775 0 0 1-.593-.75.77.77 0 0 1 .62-.75l2.623-4.608a.186.186 0 0 0-.006-.04.186.186 0 0 1-.007-.04c0-.321.15-.549.448-.683l2.756-4.862a.667.667 0 0 1-.053-.24c0-.215.075-.396.224-.543a.727.727 0 0 1 .527-.221c.229 0 .422.094.58.281h5.221A.672.672 0 0 1 35.5 24c.237 0 .426.094.567.281h5.247a.732.732 0 0 1 .58-.281c.202 0 .378.074.527.221a.73.73 0 0 1 .225.542.862.862 0 0 1-.053.241l2.729 4.795a.731.731 0 0 1 .514.234c.14.148.21.32.21.516 0 .116-.03.237-.091.362l2.465 4.339a.706.706 0 0 1 .415.261c.11.139.165.297.165.476zm-12.986 10.7h5.129l-4.51-4.74H34.75l-4.51 4.74h4.747a.754.754 0 0 1 .514-.214c.185 0 .356.072.514.215zM23.477 35.813a.81.81 0 0 1 .013.174.58.58 0 0 1-.027.2l2.743 4.822a.16.16 0 0 1 .059.013.96.96 0 0 1 .072.034l.066.033 2.479-2.665v-4.647l-2.465-2.598a.934.934 0 0 1-.383.134l-2.557 4.5zm11.522-10.5h-5.115l2.505 2.678 7.303-2.678h-3.691a.68.68 0 0 1-.501.214.68.68 0 0 1-.501-.215zm9.268 16.232a.318.318 0 0 1 .066-.148l-.844-.91-.224 1.058h1.002zm-1.397 0l.29-1.407-3.323-3.562-3.902 4.111.83.858h6.105zm-1.16 4.928l.21-.375.857-4.152h-5.63l4.391 4.594a.724.724 0 0 1 .171-.067zm-12.09.215h.066l4.509-4.742h-4.918v4.487l.053.08c.123.045.22.103.29.175zm-.343-5.143h5.3l.844-.884-4.074-4.3-2.07 2.224v2.96zm-2.544 0h2.149v-2.532l-2.215 2.37a.898.898 0 0 1 .066.162zm-.013-11.05a.06.06 0 0 0 .006.027.06.06 0 0 1 .007.027.735.735 0 0 1-.106.389l2.255 2.37v-3.603l-2.162.79zm2.557-.937v4.165l2.017 2.103 3.916-4.205-2.94-3.161-2.993 1.098zm.053-4.071l-.053.107v3.535l2.703-.99-2.518-2.693a1.834 1.834 0 0 1-.132.04zm11.747-.174h-.211l-8.187 3 2.808 3.013 5.59-6.014zm-5.59 6.589L31.57 36.12l4.1 4.272 3.903-4.112-4.087-4.38zM31.07 36.08l-1.793-1.888v3.804l1.793-1.916zm4.615 4.875l-.554.59h1.12l-.566-.59zm4.43-4.66l3.137 3.361 1.74-8.357-.04-.067-.013-.013-4.825 5.076zm4.534-5.358a.735.735 0 0 1-.105-.388v-.027l-2.848-5.035a.724.724 0 0 1-.171-.067l-5.761 6.2L39.85 36l4.798-5.063zm-15.767-1.66V26.29l-2.15 3.777 2.15-.79zm0 12.67h-2.15l2.15 3.79v-3.79zm14.304 0l-.633 3.04 1.714-3.04h-1.081zm1.608-.938l2.73-4.835a1.146 1.146 0 0 1-.027-.187c0-.01.013-.08.04-.215l-2.255-3.964-1.7 8.196 1.015 1.099c.044-.027.11-.058.197-.094z" fill="url(#c)" transform="translate(20 21)"/></g></svg>