<svg width="110" height="110" viewBox="0 0 110 110" xmlns="http://www.w3.org/2000/svg" xmlns:xlink="http://www.w3.org/1999/xlink"><title>Group 6</title><defs><circle id="b" cx="35" cy="35" r="35"/><filter x="-43.6%" y="-45%" width="187.1%" height="187.1%" filterUnits="objectBoundingBox" id="a"><feOffset dy="-1" in="SourceAlpha" result="shadowOffsetOuter1"/><feGaussianBlur stdDeviation="10" in="shadowOffsetOuter1" result="shadowBlurOuter1"/><feColorMatrix values="0 0 0 0 0.905882353 0 0 0 0 0.925490196 0 0 0 0 0.937254902 0 0 0 1 0" in="shadowBlurOuter1"/></filter><linearGradient x1="326.519%" y1="0%" x2="50%" y2="100%" id="c"><stop stop-color="#357FC7" offset="0%"/><stop stop-color="#41BBEC" offset="100%"/></linearGradient></defs><g fill="none" fill-rule="evenodd"><g transform="translate(20 21)"><use fill="#000" filter="url(#a)" xlink:href="#b"/><use fill="#FFF" xlink:href="#b"/></g><path d="M41.856 39.488c.957.37 1.72.96 2.29 1.77.57.81.854 1.724.854 2.742H26c0-1.666.615-2.939 1.845-3.818.456-.324 1.572-.694 3.35-1.111 1.093-.139 1.685-.44 1.776-.902.046-.186.069-.718.069-1.597a.475.475 0 0 0-.137-.347c-.182-.185-.365-.51-.547-.972-.091-.37-.182-.926-.273-1.666-.183.046-.33-.024-.445-.209a2.422 2.422 0 0 1-.273-.729 4.528 4.528 0 0 1-.102-.52c-.183-1.018-.114-1.504.205-1.458-.137-.185-.251-.625-.342-1.32-.137-1.017-.068-1.92.205-2.707a3.688 3.688 0 0 1 1.709-2.013 4.84 4.84 0 0 1 2.665-.625 4.802 4.802 0 0 1 2.495.833 3.807 3.807 0 0 1 1.537 2.083c.228.648.251 1.55.069 2.708-.091.555-.183.902-.274 1.04.137-.045.24 0 .308.14a.938.938 0 0 1 .068.52 18.26 18.26 0 0 1-.068.556 1.29 1.29 0 0 1-.103.382l-.136.486c-.046.324-.126.555-.24.694-.113.139-.261.185-.444.139-.09 1.018-.25 1.735-.478 2.152 0 .046-.08.162-.24.347-.159.185-.239.3-.239.347v.764c0 .462.046.81.137 1.04.091.232.41.417.957.556.319.14.786.255 1.401.347.615.093 1.082.209 1.401.348zM28.07 38h.07H28h.07zm-.152-.031a6.906 6.906 0 0 0-1.712 1.286c-.237.497-.404.745-.499.745H20c0-1.354.713-2.257 2.14-2.708.047 0 .261-.045.642-.136.38-.09.713-.18.998-.27.286-.09.452-.204.5-.34.047-.135.07-.496.07-1.082-.95.09-1.71-.068-2.282-.474l.286-.813c.047-.09.095-.214.142-.372.048-.158.072-.282.072-.373.047-.406.071-1.038.071-1.896 0-1.67.19-2.776.57-3.317.524-.813 1.427-1.219 2.711-1.219 1.95 0 3.067.835 3.352 2.505.096.406.143 1.005.143 1.794v1.456c0 .497.119 1.038.357 1.625.19.361.261.564.214.61l-.428.203c-.238.09-.642.18-1.213.27-.38 0-.594.023-.642.068v.745c0 .27.12.429.357.474.095.045.273.09.535.135.261.046.487.102.677.17.19.067.333.146.428.237.143.225.096.338-.142.338-.666.09-1.165.203-1.498.339h-.071l-.357.135h.071a.834.834 0 0 0 .214-.135zm20.853-.672C50.257 37.747 51 38.648 51 40h-5.755c-.096-.315-.48-.743-1.151-1.284-.816-.586-1.487-.924-2.015-1.014h-.36c-.191 0-.347-.022-.467-.068-.12-.045-.156-.135-.108-.27.096-.135.408-.27.935-.405.72-.18 1.103-.338 1.151-.473v-.947c-.288 0-.72-.045-1.295-.135-.288-.09-.551-.18-.791-.27-.192-.09-.192-.338 0-.744.144-.315.264-1.464.36-3.447.096-1.982.743-3.199 1.942-3.65 1.2-.45 2.35-.382 3.453.204.96.54 1.44 1.532 1.44 2.973 0 .18-.013.519-.037 1.014-.024.496-.036.879-.036 1.15 0 .27.048.607.144 1.013.096.405.24.743.432 1.014.144.225.144.36 0 .405-.048.045-.12.068-.216.068s-.168.022-.216.067l-.863.203c-.192.045-.504.068-.935.068 0 .72.023 1.104.071 1.149.144.135.336.248.576.338.24.09.516.157.827.202.312.045.54.09.684.136z" fill="url(#c)" transform="translate(20 21)"/></g></svg>