<svg width="110" height="110" viewBox="0 0 110 110" xmlns="http://www.w3.org/2000/svg" xmlns:xlink="http://www.w3.org/1999/xlink"><title>Group 11</title><defs><circle id="b" cx="35" cy="35" r="35"/><filter x="-43.6%" y="-45%" width="187.1%" height="187.1%" filterUnits="objectBoundingBox" id="a"><feOffset dy="-1" in="SourceAlpha" result="shadowOffsetOuter1"/><feGaussianBlur stdDeviation="10" in="shadowOffsetOuter1" result="shadowBlurOuter1"/><feColorMatrix values="0 0 0 0 0.905882353 0 0 0 0 0.925490196 0 0 0 0 0.937254902 0 0 0 1 0" in="shadowBlurOuter1"/></filter><linearGradient x1="0%" y1="0%" y2="100%" id="c"><stop stop-color="#FFA7E7" offset="0%"/><stop stop-color="#EA6362" offset="100%"/></linearGradient></defs><g fill="none" fill-rule="evenodd"><g transform="translate(20 21)"><use fill="#000" filter="url(#a)" xlink:href="#b"/><use fill="#FFF" xlink:href="#b"/></g><path d="M32.156 35.488c0 1.052.375 1.95 1.125 2.691.75.743 1.656 1.114 2.719 1.114s1.969-.371 2.719-1.114c.75-.742 1.125-1.639 1.125-2.69 0-1.052-.375-1.95-1.125-2.692-.75-.742-1.656-1.113-2.719-1.113s-1.969.37-2.719 1.113c-.75.743-1.125 1.64-1.125 2.691zm-2.718-1.415a6.13 6.13 0 0 1 .843-2.088 6.798 6.798 0 0 1 1.477-1.647 7.013 7.013 0 0 1 1.957-1.102A6.493 6.493 0 0 1 36 28.83a6.49 6.49 0 0 1 2.613.534 7.16 7.16 0 0 1 2.145 1.415c.281.278.62.418 1.02.418.398 0 .738-.14 1.019-.418.281-.278.422-.61.422-.998 0-.386-.14-.719-.422-.997a9.898 9.898 0 0 0-1.43-1.172 9.199 9.199 0 0 0-3.434-1.427A10.053 10.053 0 0 0 36 26a9.54 9.54 0 0 0-5.73 1.868 9.598 9.598 0 0 0-2.086 2.11 9.588 9.588 0 0 0-1.348 2.657H24v2.853h3.844c.594 0 .996-.177 1.207-.533.21-.356.34-.65.387-.882zm14.718 1.415c-.594 0-.996.182-1.207.546-.21.363-.34.66-.386.893a6.14 6.14 0 0 1-.844 2.064 7 7 0 0 1-1.477 1.66 6.647 6.647 0 0 1-1.957 1.101 6.664 6.664 0 0 1-2.285.395 6.777 6.777 0 0 1-4.758-1.949 1.396 1.396 0 0 0-1.02-.418c-.398 0-.738.14-1.019.418a1.368 1.368 0 0 0-.422 1.009c0 .394.14.73.422 1.01.438.432.914.819 1.43 1.16a9.777 9.777 0 0 0 3.434 1.427A9.481 9.481 0 0 0 36 45a9.391 9.391 0 0 0 3.07-.499 9.967 9.967 0 0 0 2.66-1.38 9.273 9.273 0 0 0 2.086-2.111 9.763 9.763 0 0 0 1.348-2.668H48v-2.854h-3.844z" fill="url(#c)" transform="translate(20 21)"/></g></svg>