<?xml version="1.0" encoding="UTF-8"?>
<svg width="128px" height="128px" viewBox="0 0 128 128" version="1.1" xmlns="http://www.w3.org/2000/svg" xmlns:xlink="http://www.w3.org/1999/xlink">
    <!-- Generator: Sketch 47.1 (45422) - http://www.bohemiancoding.com/sketch -->
    <title>Group 28</title>
    <desc>Created with Sketch.</desc>
    <defs>
        <circle id="path-1" cx="41" cy="41" r="41"></circle>
        <filter x="-44.5%" y="-45.7%" width="189.0%" height="189.0%" filterUnits="objectBoundingBox" id="filter-2">
            <feOffset dx="0" dy="-1" in="SourceAlpha" result="shadowOffsetOuter1"></feOffset>
            <feGaussianBlur stdDeviation="12" in="shadowOffsetOuter1" result="shadowBlurOuter1"></feGaussianBlur>
            <feColorMatrix values="0 0 0 0 0.905882353   0 0 0 0 0.925490196   0 0 0 0 0.937254902  0 0 0 1 0" type="matrix" in="shadowBlurOuter1"></feColorMatrix>
        </filter>
        <linearGradient x1="0%" y1="0%" x2="100%" y2="100%" id="linearGradient-3">
            <stop stop-color="#23BCBA" offset="0%"></stop>
            <stop stop-color="#45E994" offset="100%"></stop>
        </linearGradient>
    </defs>
    <g id="Page-1" stroke="none" stroke-width="1" fill="none" fill-rule="evenodd">
        <g id="01.Nguoi_Dung" transform="translate(-417.000000, -1127.000000)">
            <g id="Group-28" transform="translate(440.000000, 1151.000000)">
                <g id="Oval">
                    <use fill="black" fill-opacity="1" filter="url(#filter-2)" xlink:href="#path-1"></use>
                    <use fill="#FFFFFF" fill-rule="evenodd" xlink:href="#path-1"></use>
                </g>
                <path d="M46.3333333,47.1015625 C47.326395,47.1015625 48.166663,47.4548568 48.8541667,48.1614602 C49.5416703,48.8680598 49.8854167,49.6987798 49.8854167,50.6536458 C49.8854167,51.6467064 49.5321223,52.4965242 48.8255227,53.203125 C48.1189193,53.9097258 47.2881993,54.2630208 46.3333333,54.2630208 C45.3784673,54.2630208 44.5477473,53.9097258 43.841144,53.203125 C43.1345443,52.4965242 42.78125,51.6467064 42.78125,50.6536458 C42.78125,50.2717002 42.800346,50.0043415 42.8385417,49.8515625 L34.1875,44.8098958 C33.4618007,45.4592038 32.6215327,45.7838542 31.6666667,45.7838542 C30.6736061,45.7838542 29.8142399,45.4210118 29.0885417,44.6953125 C28.3628436,43.9696132 28,43.1102492 28,42.1171875 C28,41.1241258 28.3628436,40.2647618 29.0885417,39.5390625 C29.8142399,38.8133632 30.6736061,38.4505208 31.6666667,38.4505208 C32.6215327,38.4505208 33.4618007,38.7751712 34.1875,39.4244792 L42.78125,34.4401042 C42.7048623,34.0581585 42.6666667,33.7717038 42.6666667,33.5807292 C42.6666667,32.5876675 43.029509,31.7283035 43.7552083,31.0026042 C44.4809077,30.2769048 45.3402717,29.9140625 46.3333333,29.9140625 C47.326395,29.9140625 48.185759,30.2769048 48.9114583,31.0026042 C49.6371577,31.7283035 50,32.5876675 50,33.5807292 C50,34.5737908 49.6371577,35.4331548 48.9114583,36.1588542 C48.185759,36.8845535 47.326395,37.2473958 46.3333333,37.2473958 C45.416663,37.2473958 44.5763913,36.9036495 43.8125,36.2161458 L35.21875,41.2578125 C35.2951377,41.6397582 35.3333333,41.9262128 35.3333333,42.1171875 C35.3333333,42.3081622 35.2951377,42.5946168 35.21875,42.9765625 L43.9270833,48.0182292 C44.614587,47.4071168 45.416663,47.1015625 46.3333333,47.1015625 Z" id="Page-1" fill="url(#linearGradient-3)"></path>
            </g>
        </g>
    </g>
</svg>