<?xml version="1.0" encoding="UTF-8"?>
<svg width="128px" height="128px" viewBox="0 0 128 128" version="1.1" xmlns="http://www.w3.org/2000/svg" xmlns:xlink="http://www.w3.org/1999/xlink">
    <!-- Generator: Sketch 47.1 (45422) - http://www.bohemiancoding.com/sketch -->
    <title>Group 27</title>
    <desc>Created with Sketch.</desc>
    <defs>
        <circle id="path-1" cx="41" cy="41" r="41"></circle>
        <filter x="-44.5%" y="-45.7%" width="189.0%" height="189.0%" filterUnits="objectBoundingBox" id="filter-2">
            <feOffset dx="0" dy="-1" in="SourceAlpha" result="shadowOffsetOuter1"></feOffset>
            <feGaussianBlur stdDeviation="12" in="shadowOffsetOuter1" result="shadowBlurOuter1"></feGaussianBlur>
            <feColorMatrix values="0 0 0 0 0.905882353   0 0 0 0 0.925490196   0 0 0 0 0.937254902  0 0 0 1 0" type="matrix" in="shadowBlurOuter1"></feColorMatrix>
        </filter>
        <linearGradient x1="0%" y1="0%" x2="100%" y2="100%" id="linearGradient-3">
            <stop stop-color="#EFBFD5" offset="0%"></stop>
            <stop stop-color="#9D61FD" offset="100%"></stop>
        </linearGradient>
    </defs>
    <g id="Page-1" stroke="none" stroke-width="1" fill="none" fill-rule="evenodd">
        <g id="01.Nguoi_Dung" transform="translate(-655.000000, -1127.000000)">
            <g id="Group-27" transform="translate(678.000000, 1151.000000)">
                <g id="Oval">
                    <use fill="black" fill-opacity="1" filter="url(#filter-2)" xlink:href="#path-1"></use>
                    <use fill="#FFFFFF" fill-rule="evenodd" xlink:href="#path-1"></use>
                </g>
                <path d="M36,36.2857143 C35.5833314,36.2857143 35.2410714,36.1517857 34.9732143,35.8839286 C34.7053571,35.6160714 34.5714286,35.2738114 34.5714286,34.8571429 L34.5714286,33.4285714 C34.5714286,33.0119029 34.7053571,32.6696429 34.9732143,32.4017857 C35.2410714,32.1339286 35.5833314,32 36,32 C36.4166686,32 36.7589286,32.1339286 37.0267857,32.4017857 C37.2946429,32.6696429 37.4285714,33.0119029 37.4285714,33.4285714 L37.4285714,34.8571429 C37.4285714,35.2738114 37.2946429,35.6160714 37.0267857,35.8839286 C36.7589286,36.1517857 36.4166686,36.2857143 36,36.2857143 Z M46,36.2857143 C45.5833314,36.2857143 45.2410714,36.1517857 44.9732143,35.8839286 C44.7053571,35.6160714 44.5714286,35.2738114 44.5714286,34.8571429 L44.5714286,33.4285714 C44.5714286,33.0119029 44.7053571,32.6696429 44.9732143,32.4017857 C45.2410714,32.1339286 45.5833314,32 46,32 C46.4166686,32 46.7589286,32.1339286 47.0267857,32.4017857 C47.2946429,32.6696429 47.4285714,33.0119029 47.4285714,33.4285714 L47.4285714,34.8571429 C47.4285714,35.2738114 47.2946429,35.6160714 47.0267857,35.8839286 C46.7589286,36.1517857 46.4166686,36.2857143 46,36.2857143 Z M50.6428571,33.4285714 C50.8809543,33.4285714 51,33.5476171 51,33.7857143 L51,51.6428571 C51,51.8809536 50.8809543,52 50.6428571,52 L31.3571429,52 C31.1190464,52 31,51.8809536 31,51.6428571 L31,33.7857143 C31,33.5476171 31.1190464,33.4285714 31.3571429,33.4285714 L33.8571429,33.4285714 L33.8571429,35.2589286 C33.8571429,35.73512 34.0729143,36.1443429 34.5044629,36.4866057 C34.9360143,36.8288714 35.43452,37 36,37 C36.56548,37 37.0639857,36.8288714 37.4955371,36.4866057 C37.9270857,36.1443429 38.1428571,35.73512 38.1428571,35.2589286 L38.1428571,33.4285714 L43.8571429,33.4285714 L43.8571429,35.2589286 C43.8571429,35.73512 44.0803543,36.1443429 44.5267857,36.4866057 C44.9732171,36.8288714 45.4791629,37 46.0446429,37 C46.58036,37 47.0639857,36.8288714 47.4955371,36.4866057 C47.9270857,36.1443429 48.1428571,35.73512 48.1428571,35.2589286 L48.1428571,33.4285714 L50.6428571,33.4285714 Z M48.8571429,49.8571429 L48.8571429,38.4285714 L33.1428571,38.4285714 L33.1428571,49.8571429 L48.8571429,49.8571429 Z" id="Page-1" fill="url(#linearGradient-3)"></path>
            </g>
        </g>
    </g>
</svg>