<?xml version="1.0" encoding="UTF-8"?>
<svg width="128px" height="128px" viewBox="0 0 128 128" version="1.1" xmlns="http://www.w3.org/2000/svg" xmlns:xlink="http://www.w3.org/1999/xlink">
    <!-- Generator: Sketch 47.1 (45422) - http://www.bohemiancoding.com/sketch -->
    <title>Group 4</title>
    <desc>Created with Sketch.</desc>
    <defs>
        <circle id="path-1" cx="41" cy="41" r="41"></circle>
        <filter x="-44.5%" y="-45.7%" width="189.0%" height="189.0%" filterUnits="objectBoundingBox" id="filter-2">
            <feOffset dx="0" dy="-1" in="SourceAlpha" result="shadowOffsetOuter1"></feOffset>
            <feGaussianBlur stdDeviation="12" in="shadowOffsetOuter1" result="shadowBlurOuter1"></feGaussianBlur>
            <feColorMatrix values="0 0 0 0 0.905882353   0 0 0 0 0.925490196   0 0 0 0 0.937254902  0 0 0 1 0" type="matrix" in="shadowBlurOuter1"></feColorMatrix>
        </filter>
        <linearGradient x1="326.519097%" y1="0%" x2="50%" y2="100%" id="linearGradient-3">
            <stop stop-color="#357FC7" offset="0%"></stop>
            <stop stop-color="#41BBEC" offset="100%"></stop>
        </linearGradient>
    </defs>
    <g id="Page-1" stroke="none" stroke-width="1" fill="none" fill-rule="evenodd">
        <g id="01.Nguoi_Dung" transform="translate(-417.000000, -957.000000)">
            <g id="Group-4" transform="translate(440.000000, 981.000000)">
                <g id="Oval">
                    <use fill="black" fill-opacity="1" filter="url(#filter-2)" xlink:href="#path-1"></use>
                    <use fill="#FFFFFF" fill-rule="evenodd" xlink:href="#path-1"></use>
                </g>
                <path d="M33.9075921,38.7450946 L33.9075921,57.4018509 C33.9075921,57.8882779 34.0855316,58.3090139 34.4421345,58.6642993 C34.7924642,59.0137495 35.2070331,59.1895875 35.6846952,59.195122 C36.1620557,59.1895875 36.5769262,59.0136894 36.9276178,58.6642993 C37.2838588,58.3090139 37.461738,57.8882779 37.461738,57.4018509 L37.461738,38.7450946 C37.9962804,38.5584284 40,36.777309 40,36.2062415 L40,28.7024761 C40,28.4598641 39.9106683,28.2492555 39.7327288,28.0714324 C39.5544274,27.8939701 39.3432524,27.804878 39.0999879,27.804878 C38.8559997,27.804878 38.6451866,27.8939701 38.4672471,28.0714324 C38.2889456,28.2496165 38.1999759,28.4598641 38.1999759,28.7024761 L38.1999759,34.5370738 C38.1999759,34.7804076 38.1106442,34.9906552 37.9327047,35.1681175 C37.7544032,35.3459407 37.5435902,35.4343109 37.2999638,35.4343109 C37.0559756,35.4343109 36.8451625,35.3459407 36.6672229,35.1681175 C36.4892834,34.9906552 36.3999517,34.7800467 36.3999517,34.5370738 L36.3999517,28.7024761 C36.3999517,28.4598641 36.3106201,28.2492555 36.1326806,28.0714324 C35.954741,27.8939701 35.7436263,27.804878 35.5,27.804878 C35.2560117,27.804878 35.0451986,27.8939701 34.8672591,28.0714324 C34.6889577,28.2496165 34.5999879,28.4598641 34.5999879,28.7024761 L34.5999879,34.5370738 C34.5999879,34.7804076 34.5106563,34.9906552 34.3327167,35.1681175 C34.1544153,35.3459407 33.9436022,35.4343109 33.6999759,35.4343109 C33.4559876,35.4343109 33.2451745,35.3459407 33.067235,35.1681175 C32.8889336,34.9906552 32.7999638,34.7800467 32.7999638,34.5370738 L32.7999638,28.7024761 C32.7999638,28.4598641 32.710994,28.2492555 32.5326926,28.0714324 C32.3547531,27.8939701 32.1436384,27.804878 31.8999517,27.804878 C31.6559635,27.804878 31.4451504,27.8939701 31.2672712,28.0714324 C31.0893317,28.2496165 31,28.4598641 31,28.7024761 L31,36.2059408 C31.000181,36.7768879 33.3730497,38.5580675 33.9075921,38.7450946 Z" id="Shape" fill="url(#linearGradient-3)" fill-rule="nonzero"></path>
                <path d="M36.2195909,58.4051341 C36.1668182,58.4051341 36.1169091,58.3902439 36.0641364,58.3902439 C36.0117727,58.3902439 35.9639091,58.4051341 35.9090909,58.4051341 L36.2195909,58.4051341 Z" id="Shape" fill="url(#linearGradient-3)" fill-rule="nonzero"></path>
                <path d="M47.6737273,59.2100122 C47.6209545,59.2100122 47.5714545,59.195122 47.5186818,59.195122 C47.4659091,59.195122 47.4155909,59.2100122 47.3636364,59.2100122 L47.6737273,59.2100122 Z" id="Shape" fill="url(#linearGradient-3)" fill-rule="nonzero"></path>
                <path d="M43.6985249,43.0083667 L45.6334962,43.0083667 L45.6334962,57.418388 C45.6334962,57.9002101 45.8019756,58.3171853 46.1393916,58.6690752 C46.4714372,59.0153029 46.864156,59.1896386 47.3165767,59.195122 C47.7685975,59.1896386 48.161602,59.0152433 48.4937618,58.6690752 C48.8311778,58.3171853 49,57.9002101 49,57.418388 L49,27.8893206 C49,27.648946 48.9154461,27.4402796 48.7469095,27.2640962 C48.5780873,27.0882705 48.3784714,27 48.1477191,27 L47.5351029,27 C46.362774,27 45.3593243,27.435571 44.5246969,28.3062362 C43.6901838,29.177259 43.2727273,30.2241671 43.2727273,31.4468414 L43.2727273,42.5637958 C43.2727273,42.6841917 43.3150042,42.7884951 43.3992725,42.876408 C43.4831409,42.9642612 43.5831202,43.0083667 43.6985249,43.0083667 Z" id="Shape" fill="url(#linearGradient-3)" fill-rule="nonzero"></path>
            </g>
        </g>
    </g>
</svg>