<?xml version="1.0" encoding="UTF-8"?>
<svg width="128px" height="128px" viewBox="0 0 128 128" version="1.1" xmlns="http://www.w3.org/2000/svg" xmlns:xlink="http://www.w3.org/1999/xlink">
    <!-- Generator: Sketch 47.1 (45422) - http://www.bohemiancoding.com/sketch -->
    <title>Group 25</title>
    <desc>Created with Sketch.</desc>
    <defs>
        <circle id="path-1" cx="41" cy="41" r="41"></circle>
        <filter x="-44.5%" y="-45.7%" width="189.0%" height="189.0%" filterUnits="objectBoundingBox" id="filter-2">
            <feOffset dx="0" dy="-1" in="SourceAlpha" result="shadowOffsetOuter1"></feOffset>
            <feGaussianBlur stdDeviation="12" in="shadowOffsetOuter1" result="shadowBlurOuter1"></feGaussianBlur>
            <feColorMatrix values="0 0 0 0 0.905882353   0 0 0 0 0.925490196   0 0 0 0 0.937254902  0 0 0 1 0" type="matrix" in="shadowBlurOuter1"></feColorMatrix>
        </filter>
        <linearGradient x1="0%" y1="0%" x2="100%" y2="100%" id="linearGradient-3">
            <stop stop-color="#45E0A7" offset="0%"></stop>
            <stop stop-color="#D5E969" offset="100%"></stop>
        </linearGradient>
    </defs>
    <g id="Page-1" stroke="none" stroke-width="1" fill="none" fill-rule="evenodd">
        <g id="01.Nguoi_Dung" transform="translate(-1134.000000, -1128.000000)">
            <g id="Group-25" transform="translate(1157.000000, 1152.000000)">
                <g id="Oval-Copy-2">
                    <use fill="black" fill-opacity="1" filter="url(#filter-2)" xlink:href="#path-1"></use>
                    <use fill="#FFFFFF" fill-rule="evenodd" xlink:href="#path-1"></use>
                </g>
                <path d="M31.0026928,41.0125337 C31.0179517,40.676837 31.132392,40.3525895 31.346017,40.0397824 C31.5825305,39.6811959 31.8896118,39.4084467 32.2672703,39.221526 C32.6449289,39.0346023 33.0244891,38.9564028 33.4059625,38.9869214 C33.4517393,38.9869214 33.5165888,38.9945504 33.600513,39.0098083 C34.2413884,39.0708456 34.828849,39.0174401 35.3629099,38.8495917 C36.804879,38.3841942 38.6702572,37.0070945 40.9590972,34.7182545 C41.8059651,33.8713866 42.7958756,33.299184 43.9288493,33.0016348 C45.0618258,32.7040857 46.1928776,32.7040857 47.3220368,33.0016348 C48.4511989,33.299184 49.4391993,33.8713866 50.2860701,34.7182545 C51.132941,35.5651254 51.7051436,36.5550359 52.0026928,37.6880096 C52.3002419,38.8209862 52.3002419,39.9520379 52.0026928,41.0812 C51.7051436,42.2103592 51.132941,43.1983596 50.2860701,44.0452304 C49.6528242,44.6784763 49.0920679,45.2773803 48.6037806,45.8419628 C48.1154963,46.4065424 47.7187709,46.9005426 47.4135899,47.323978 C47.1084118,47.7474134 46.8509234,48.1517677 46.641113,48.5370555 C46.4313025,48.9223433 46.2806221,49.2446836 46.189069,49.504088 C46.0975159,49.7634895 46.032664,50.0228852 45.9945193,50.2822867 C45.9563717,50.5416911 45.9411109,50.7476813 45.9487398,50.9002718 C45.9563717,51.0528623 45.9678151,51.2168921 45.983073,51.39237 C45.9983338,51.4839234 46.0059627,51.5525877 46.0059627,51.5983643 C46.0364785,51.9798376 45.9563717,52.3613054 45.7656336,52.7427784 C45.5748984,53.1242517 45.3040564,53.4332405 44.9531017,53.669754 C44.6402918,53.8757496 44.3160443,53.9882825 43.9803505,54.0073562 C43.6446537,54.0264298 43.2822586,53.9787464 42.8931563,53.8643044 C42.8855274,53.8643044 42.8035104,53.845231 42.6471054,53.8070837 C42.4907034,53.7689363 42.3323941,53.7269749 42.1721747,53.6811983 C42.0119552,53.6354214 41.7868898,53.5553132 41.4969696,53.4408712 C41.2070494,53.3264292 40.9152278,53.2005449 40.6214932,53.0632144 C40.3277585,52.9258841 39.9825314,52.7389651 39.5858002,52.5024516 C39.1890661,52.2659381 38.7923407,52.0065401 38.3956095,51.72425 C37.9988754,51.4419599 37.5582807,51.0967316 37.0738108,50.6885541 C36.589338,50.2803795 36.1105957,49.8397848 35.6375693,49.3667554 C35.2103194,48.9395055 34.8116868,48.5122644 34.4416569,48.0850116 C34.071627,47.6577617 33.7511954,47.2572219 33.4803493,46.8833775 C33.2095032,46.5095331 32.9615495,46.1471409 32.7364803,45.7961833 C32.511411,45.4452287 32.3206773,45.1152595 32.1642732,44.8062669 C32.0078691,44.4972744 31.8724481,44.214986 31.7580061,43.959399 C31.6435641,43.703812 31.5481971,43.4634887 31.4719024,43.2384203 C31.3956081,43.013349 31.3383878,42.8302457 31.3002405,42.6891015 C31.2620931,42.5479544 31.227761,42.4163494 31.1972432,42.2942775 C31.1667253,42.1722057 31.1514666,42.1073568 31.1514666,42.0997279 C31.0370246,41.7106256 30.9874339,41.3482305 31.0026928,41.0125337 Z M33.302965,42.5460501 C33.3792597,43.0114447 33.5623642,43.5359636 33.8522838,44.1196184 C34.1422034,44.7032733 34.5522824,45.3460437 35.0825288,46.0479559 C35.6127781,46.7498681 36.2135893,47.4365078 36.8849799,48.1079013 C38.2659146,49.4812041 39.5972378,50.4959087 40.8789874,51.1520429 C42.1607371,51.8081771 43.0228541,51.9111733 43.4653619,51.4610346 C43.7934297,51.1100793 43.8086876,50.5130826 43.5111385,49.6700262 C43.2135893,48.8269699 42.6642764,47.8866533 41.8631821,46.8490472 C41.7411103,47.0168927 41.6304848,47.1504079 41.5313028,47.24959 C41.0124997,47.7607641 40.3830771,48.0163482 39.6430202,48.0163482 C38.9029603,48.0163482 38.2735406,47.7607641 37.7547376,47.24959 C37.2359317,46.730787 36.9765331,46.0975499 36.9765331,45.349864 C36.9765331,44.6021752 37.2359317,43.9689381 37.7547376,43.4501351 C37.8539197,43.3662109 37.9836175,43.2632144 38.1438369,43.1411425 C37.1062309,42.3400512 36.1678186,41.7888281 35.3285767,41.4874645 C34.4893377,41.1861009 33.8942477,41.1994545 33.5432921,41.5275193 C33.3067786,41.7411443 33.2266707,42.0806526 33.302965,42.5460501 Z" id="Page-1" fill="url(#linearGradient-3)"></path>
            </g>
        </g>
    </g>
</svg>