<?xml version="1.0" encoding="UTF-8"?>
<svg width="128px" height="128px" viewBox="0 0 128 128" version="1.1" xmlns="http://www.w3.org/2000/svg" xmlns:xlink="http://www.w3.org/1999/xlink">
    <!-- Generator: Sketch 47.1 (45422) - http://www.bohemiancoding.com/sketch -->
    <title>Group 26</title>
    <desc>Created with Sketch.</desc>
    <defs>
        <circle id="path-1" cx="41" cy="41" r="41"></circle>
        <filter x="-44.5%" y="-45.7%" width="189.0%" height="189.0%" filterUnits="objectBoundingBox" id="filter-2">
            <feOffset dx="0" dy="-1" in="SourceAlpha" result="shadowOffsetOuter1"></feOffset>
            <feGaussianBlur stdDeviation="12" in="shadowOffsetOuter1" result="shadowBlurOuter1"></feGaussianBlur>
            <feColorMatrix values="0 0 0 0 0.905882353   0 0 0 0 0.925490196   0 0 0 0 0.937254902  0 0 0 1 0" type="matrix" in="shadowBlurOuter1"></feColorMatrix>
        </filter>
        <linearGradient x1="100%" y1="100%" x2="0%" y2="0%" id="linearGradient-3">
            <stop stop-color="#FBC79A" offset="0%"></stop>
            <stop stop-color="#D73E68" offset="100%"></stop>
        </linearGradient>
    </defs>
    <g id="Page-1" stroke="none" stroke-width="1" fill="none" fill-rule="evenodd">
        <g id="01.Nguoi_Dung" transform="translate(-905.000000, -1128.000000)">
            <g id="Group-26" transform="translate(928.000000, 1152.000000)">
                <g id="Oval-Copy">
                    <use fill="black" fill-opacity="1" filter="url(#filter-2)" xlink:href="#path-1"></use>
                    <use fill="#FFFFFF" fill-rule="evenodd" xlink:href="#path-1"></use>
                </g>
                <path d="M55,43.4999981 C55,44.5000056 54.7379537,45.3921544 54.2138536,46.1764706 C53.6897572,46.9607868 53.0006743,47.5294099 52.1465863,47.8823529 L52.1465863,50.0588235 C52.1465863,50.3137269 52.0592388,50.5343127 51.8845363,50.7205882 C51.7098375,50.9068637 51.4963192,51 51.2439778,51 L29.7560222,51 C29.50368,51 29.2901614,50.9068637 29.1154618,50.7205882 C28.9407623,50.5343127 28.8534137,50.3137269 28.8534137,50.0588235 L28.8534137,47.8823529 C27.9993264,47.5294099 27.3102436,46.9607868 26.7861446,46.1764706 C26.2620456,45.3921544 26,44.5000056 26,43.4999981 C26,42.4999944 26.2620456,41.6078456 26.7861446,40.8235294 C27.3102436,40.0392132 27.9993264,39.4705882 28.8534137,39.1176471 L28.8534137,36.9411765 C28.8534137,36.686272 28.9407623,36.4656866 29.1154618,36.2794127 C29.2901614,36.0931351 29.5133856,36 29.7851406,36 L51.2439778,36 C51.4963192,36 51.7098375,36.0931351 51.8845363,36.2794127 C52.0592388,36.4656866 52.1465863,36.686272 52.1465863,36.9411765 L52.1465863,39.1176471 C53.0006743,39.4705882 53.6897572,40.0392132 54.2138536,40.8235294 C54.7379537,41.6078456 55,42.4999944 55,43.4999981 Z M37.1807229,43.4999981 L33.4829299,43.4999981 L33.4829299,44.4411746 L37.1807229,44.4411746 L37.1807229,43.4999981 Z M41.6064257,40.2941176 C41.4705464,40.1568602 41.315261,40.0539219 41.1405622,39.9852951 C40.9658635,39.9166645 40.7620501,39.8823529 40.5291183,39.8823529 C40.2961829,39.8823529 40.0923695,39.9166645 39.9176707,39.9852951 C39.7429719,40.0539219 39.5876866,40.1568602 39.4518072,40.2941176 C39.3159279,40.4509816 39.2140231,40.6372555 39.1460853,40.8529431 C39.0781437,41.0686268 39.0441767,41.3333308 39.0441767,41.6470588 C39.0441767,41.9411765 39.0781437,42.2009788 39.1460853,42.4264696 C39.2140231,42.6519605 39.3159279,42.8333327 39.4518072,42.9705901 C39.5876866,43.1274504 39.7138536,43.2401958 39.8303231,43.3088226 C39.946789,43.3774532 40.1214841,43.4117647 40.3544158,43.4117647 C40.5873513,43.4117647 40.8202793,43.3774532 41.053211,43.3088226 C41.2861464,43.2401958 41.4705464,43.1274504 41.6064257,42.9705901 C41.742305,42.8333327 41.8393574,42.6519605 41.8975904,42.4264696 C41.9558233,42.2009788 41.9849379,41.9411765 41.9849379,41.6470588 C41.9849379,41.3333308 41.9558233,41.0686268 41.8975904,40.8529431 C41.8393574,40.6372555 41.742305,40.4509816 41.6064257,40.2941176 Z M44.751004,39.7352922 L40.0050182,47.2647059 L40.9367451,47.2647059 L45.6827309,39.7352922 L44.751004,39.7352922 Z M46.2359456,44.0588235 C46.1000663,43.9019595 45.944781,43.7892179 45.7700822,43.7205873 C45.5953797,43.6519605 45.3915663,43.6176452 45.1586345,43.6176452 C44.9257028,43.6176452 44.7218894,43.6519605 44.5471869,43.7205873 C44.3724881,43.7892179 44.2172028,43.9019595 44.0813234,44.0588235 C43.9648576,44.1960809 43.8726576,44.3774494 43.8047198,44.6029402 C43.7367783,44.8284311 43.7028112,45.0882334 43.7028112,45.3823511 C43.7028112,45.6960791 43.7367783,45.9656847 43.8047198,46.1911755 C43.8726576,46.4166664 43.9648576,46.5980386 44.0813234,46.735296 C44.2172028,46.8725496 44.3773405,46.9803934 44.5617479,47.0588235 C44.7461516,47.1372536 44.9548174,47.1764706 45.1877529,47.1764706 C45.4012711,47.1764706 45.5953797,47.1372536 45.7700822,47.0588235 C45.944781,46.9803934 46.1000663,46.8725496 46.2359456,46.735296 C46.3718212,46.5980386 46.4737261,46.4166664 46.5416676,46.1911755 C46.6096054,45.9656847 46.6435724,45.6960791 46.6435724,45.3823511 C46.6435724,45.0882334 46.6096054,44.8284311 46.5416676,44.6029402 C46.4737261,44.3774494 46.3718212,44.1960809 46.2359456,44.0588235 Z M45.1586345,46.4411746 C45.0809919,46.4411746 45.0179065,46.4264696 44.9693784,46.3970598 C44.9208504,46.3676461 44.8771747,46.3235313 44.8383553,46.2647078 C44.7801186,46.2058805 44.7412991,46.1029421 44.7218894,45.9558814 C44.702476,45.8088245 44.6927711,45.6176489 44.6927711,45.3823511 C44.6927711,45.1666673 44.702476,44.9852951 44.7218894,44.8382344 C44.7412991,44.6911774 44.7801186,44.578432 44.8383553,44.5000019 C44.8771747,44.4411746 44.9208504,44.4019614 44.9693784,44.3823548 C45.0179065,44.3627445 45.0809919,44.3529412 45.1586345,44.3529412 C45.2168675,44.3529412 45.2751004,44.3627445 45.3333333,44.3823548 C45.3915663,44.4019614 45.4400943,44.4411746 45.4789138,44.5000019 C45.517737,44.578432 45.5517078,44.6911774 45.5808224,44.8382344 C45.6099407,44.9852951 45.624498,45.1666673 45.624498,45.3823511 C45.624498,45.6176489 45.6099407,45.8088245 45.5808224,45.9558814 C45.5517078,46.1029421 45.517737,46.2058805 45.4789138,46.2647078 C45.4400943,46.3235313 45.3915663,46.3676461 45.3333333,46.3970598 C45.2751004,46.4264696 45.2168675,46.4411746 45.1586345,46.4411746 Z M40.5291183,42.7058824 C40.4514719,42.7058824 40.3883866,42.6911774 40.3398585,42.6617638 C40.2913304,42.6323539 40.2476585,42.5882353 40.2088353,42.5294118 C40.1506024,42.4509816 40.1117792,42.3382362 40.0923695,42.1911755 C40.0729597,42.0441186 40.0632549,41.8627464 40.0632549,41.6470588 C40.0632549,41.4313713 40.0729597,41.2499991 40.0923695,41.1029421 C40.1117792,40.9558814 40.1506024,40.843136 40.2088353,40.7647059 C40.2476585,40.7058824 40.2913304,40.6617638 40.3398585,40.6323539 C40.3883866,40.6029402 40.4514719,40.5882353 40.5291183,40.5882353 C40.5873513,40.5882353 40.640728,40.6029402 40.6892561,40.6323539 C40.7377842,40.6617638 40.7814598,40.7058824 40.8202793,40.7647059 C40.8785159,40.843136 40.9173354,40.9558814 40.9367451,41.1029421 C40.9561586,41.2499991 40.9658635,41.4313713 40.9658635,41.6470588 C40.9658635,41.8627464 40.9561586,42.0441186 40.9367451,42.1911755 C40.9173354,42.3382362 40.8785159,42.4509816 40.8202793,42.5294118 C40.7814598,42.5882353 40.7377842,42.6323539 40.6892561,42.6617638 C40.640728,42.6911774 40.5873513,42.7058824 40.5291183,42.7058824 Z" id="Page-1" fill="url(#linearGradient-3)"></path>
            </g>
        </g>
    </g>
</svg>