<?xml version="1.0" encoding="UTF-8"?>
<svg width="128px" height="128px" viewBox="0 0 128 128" version="1.1" xmlns="http://www.w3.org/2000/svg" xmlns:xlink="http://www.w3.org/1999/xlink">
    <!-- Generator: Sketch 47.1 (45422) - http://www.bohemiancoding.com/sketch -->
    <title>Group 23</title>
    <desc>Created with Sketch.</desc>
    <defs>
        <circle id="path-1" cx="41" cy="41" r="41"></circle>
        <filter x="-44.5%" y="-45.7%" width="189.0%" height="189.0%" filterUnits="objectBoundingBox" id="filter-2">
            <feOffset dx="0" dy="-1" in="SourceAlpha" result="shadowOffsetOuter1"></feOffset>
            <feGaussianBlur stdDeviation="12" in="shadowOffsetOuter1" result="shadowBlurOuter1"></feGaussianBlur>
            <feColorMatrix values="0 0 0 0 0.905882353   0 0 0 0 0.925490196   0 0 0 0 0.937254902  0 0 0 1 0" type="matrix" in="shadowBlurOuter1"></feColorMatrix>
        </filter>
        <linearGradient x1="50%" y1="100%" x2="50%" y2="0%" id="linearGradient-3">
            <stop stop-color="#41BEED" offset="0%"></stop>
            <stop stop-color="#3064B6" offset="100%"></stop>
        </linearGradient>
    </defs>
    <g id="Page-1" stroke="none" stroke-width="1" fill="none" fill-rule="evenodd">
        <g id="01.Nguoi_Dung" transform="translate(-905.000000, -958.000000)">
            <g id="Group-23" transform="translate(928.000000, 982.000000)">
                <g id="Oval-Copy">
                    <use fill="black" fill-opacity="1" filter="url(#filter-2)" xlink:href="#path-1"></use>
                    <use fill="#FFFFFF" fill-rule="evenodd" xlink:href="#path-1"></use>
                </g>
                <path d="M41.7494545,30 C37.3207273,30.0266815 33.7072727,31.2873819 30.9989091,33.7420789 C28.7327273,35.7965536 27.7032727,38.2045581 27.2956364,39.4519177 C27.2818182,39.4986103 27.2610909,39.5519733 27.2472727,39.5986659 L25.2436364,39.5986659 C24.5596364,39.5986659 24,40.1389661 24,40.799333 C24,41.4596998 24.5596364,42 25.2436364,42 L28.2145455,42 C28.8225455,42 29.3407273,41.5797665 29.4374545,40.9994441 C29.4374545,40.9994441 29.4996364,40.6792663 29.6654545,40.1789883 C30.4323636,37.8576987 33.1407273,32.4546971 41.7632727,32.4013341 C42.4472727,32.3946637 43,31.8543635 43,31.1939967 C43,30.5336298 42.4334545,30 41.7494545,30 Z" id="Shape" fill="url(#linearGradient-3)" fill-rule="nonzero"></path>
                <path d="M54.4315463,38.0859749 L54.2705989,38.0859749 C53.539629,36.3047116 52.3727597,34.6866175 50.8437586,33.3472706 C50.6962234,32.6673991 50.863877,31.9263392 51.3467195,31.144487 C51.7692067,30.4646155 51.7625005,29.6283735 51.3400134,28.948502 C50.9175262,28.2754292 50.1664379,27.9150973 49.3818189,28.0170781 C46.6054748,28.3706112 45.1100044,29.8051401 44.3522099,30.9541229 C43.9766658,31.5116176 44.124201,32.2730736 44.6808111,32.6538017 C45.230715,33.0345297 45.9818032,32.884958 46.3573474,32.3206646 C46.9273697,31.4572278 47.7857563,30.8793371 48.8989765,30.593791 C48.3624848,31.76317 48.2350681,32.9597438 48.5435508,34.0951293 C48.5703753,34.435065 48.7313228,34.7478059 48.9861563,34.9585661 C50.5621005,36.2503219 51.7021452,37.8820135 52.2855798,39.683673 C52.4465273,40.1935766 52.9226636,40.5335123 53.4524491,40.5267136 L54.4315463,40.5267136 C54.5187262,40.5267136 54.5924938,40.6014995 54.5924938,40.6898828 L54.5924938,44.1028377 C54.5924938,44.191221 54.5187262,44.2660069 54.4315463,44.2660069 L53.4859799,44.2660069 C52.9561944,44.2660069 52.4867642,44.61954 52.3325229,45.1294437 C51.8161497,46.8291224 50.8035217,48.3928268 49.3952312,49.6641865 C49.3885251,49.6709853 49.3885251,49.6709853 49.3818189,49.677784 C49.3818189,49.677784 49.3751128,49.677784 49.3751128,49.6845827 C49.3214636,49.7321737 49.2678144,49.7797647 49.2141653,49.8273557 C49.2074591,49.8341544 49.1940468,49.8409531 49.1873407,49.8477518 C47.4571552,51.4386512 47.2827954,53.3286939 47.2693831,53.8657924 C47.2693831,53.8725911 47.2693831,53.8861885 47.2693831,53.8929873 L47.2693831,54.5456639 L43.7017138,54.5456639 L43.7017138,53.2471093 C43.7017138,52.9003749 43.5541786,52.5672378 43.2993451,52.3360815 C43.0445116,52.1049252 42.7024982,51.9893471 42.3671909,52.0301394 C41.8843485,52.0845291 41.401506,52.1049252 40.9253697,52.1049252 C40.3084043,52.1049252 39.6914389,52.0641329 39.0878859,51.9825483 C38.7391663,51.9349573 38.3971529,52.0437368 38.1289071,52.2748931 C37.8673674,52.5060494 37.7131261,52.8459852 37.7131261,53.1995183 L37.7131261,54.5524626 L34.1387506,54.5524626 C34.0851014,53.6278374 33.7766188,51.4726447 32.1067886,49.7321737 C31.3758187,48.9639189 30.7186165,47.9577091 30.1553003,46.720343 C30.1485941,46.7067455 30.141888,46.6863494 30.1351819,46.672752 C29.8065807,46.0200753 29.5517472,45.3402038 29.3840936,44.6399362 C29.3840936,44.6263387 29.3773874,44.61954 29.3773874,44.6059426 L29.3773874,44.5991439 C29.3036198,44.3000004 29.1158478,44.0280518 28.8408958,43.8512852 C28.4251148,43.5929341 27.8886232,43.6133302 27.4929606,43.9124737 C27.097298,44.2048184 26.9162321,44.7215208 27.0369427,45.2042295 C27.0369427,45.2042295 27.0369427,45.2178269 27.0436489,45.2382231 C27.2582455,46.1084586 27.5734343,46.9650967 27.9825092,47.7741438 C28.6598299,49.2494649 29.4645673,50.4800323 30.3833092,51.4386512 C31.5099416,52.6148288 31.7044199,54.1037474 31.7379506,54.7156318 L31.7379506,55.0283727 C31.7379506,55.0555675 31.7379506,55.0827624 31.7379506,55.1031585 C31.7379506,55.1439508 31.7446567,55.1915418 31.7446567,55.2323341 C31.8452489,56.2317452 32.6835171,57 33.6760266,57 L38.1825562,57 C39.2555395,57 40.1273384,56.1161671 40.1273384,55.0283727 L40.1273384,54.5388652 C40.5095887,54.5592613 40.8985451,54.56606 41.2875015,54.5524626 L41.2875015,55.0215739 C41.2875015,56.1093683 42.1593004,56.9932013 43.2322837,56.9932013 L47.7388133,56.9932013 C48.8117966,56.9932013 49.6835955,56.1093683 49.6835955,55.0215739 L49.6835955,53.9065847 C49.6903016,53.6686297 49.7841876,52.6080301 50.7968156,51.6630087 C50.8571709,51.6154177 50.9108201,51.561028 50.9711754,51.513437 C50.9912938,51.4930409 51.0114122,51.4794434 51.0315307,51.4590473 C52.5135888,50.1129017 53.6402212,48.4880089 54.3376603,46.7135442 L54.4248402,46.7135442 C55.8398369,46.7135442 57,45.5441653 57,44.1028377 L57,40.6898828 C57,39.2621526 55.846543,38.0859749 54.4315463,38.0859749 Z" id="Shape" fill="url(#linearGradient-3)" fill-rule="nonzero"></path>
                <circle id="Oval" fill="url(#linearGradient-3)" fill-rule="nonzero" cx="48.5" cy="38.5" r="1.5"></circle>
            </g>
        </g>
    </g>
</svg>