<?xml version="1.0" encoding="UTF-8"?>
<svg width="128px" height="128px" viewBox="0 0 128 128" version="1.1" xmlns="http://www.w3.org/2000/svg" xmlns:xlink="http://www.w3.org/1999/xlink">
    <!-- Generator: Sketch 47.1 (45422) - http://www.bohemiancoding.com/sketch -->
    <title>Group 5</title>
    <desc>Created with Sketch.</desc>
    <defs>
        <circle id="path-1" cx="41" cy="41" r="41"></circle>
        <filter x="-44.5%" y="-45.7%" width="189.0%" height="189.0%" filterUnits="objectBoundingBox" id="filter-2">
            <feOffset dx="0" dy="-1" in="SourceAlpha" result="shadowOffsetOuter1"></feOffset>
            <feGaussianBlur stdDeviation="12" in="shadowOffsetOuter1" result="shadowBlurOuter1"></feGaussianBlur>
            <feColorMatrix values="0 0 0 0 0.905882353   0 0 0 0 0.925490196   0 0 0 0 0.937254902  0 0 0 1 0" type="matrix" in="shadowBlurOuter1"></feColorMatrix>
        </filter>
        <linearGradient x1="49.9694824%" y1="-0.0665284915%" x2="49.9694824%" y2="99.6755018%" id="linearGradient-3">
            <stop stop-color="#48B7E9" offset="0%"></stop>
            <stop stop-color="#B8F6C6" offset="100%"></stop>
        </linearGradient>
    </defs>
    <g id="Page-1" stroke="none" stroke-width="1" fill="none" fill-rule="evenodd">
        <g id="01.Nguoi_Dung" transform="translate(-655.000000, -957.000000)">
            <g id="Group-5" transform="translate(678.000000, 981.000000)">
                <g id="Oval">
                    <use fill="black" fill-opacity="1" filter="url(#filter-2)" xlink:href="#path-1"></use>
                    <use fill="#FFFFFF" fill-rule="evenodd" xlink:href="#path-1"></use>
                </g>
                <path d="M43,40.1875 L43,35 C43,34.729164 42.901044,34.494792 42.703124,34.296876 C42.505208,34.098956 42.270836,34 42,34 C41.729164,34 41.494792,34.098956 41.296876,34.296876 C41.098956,34.494792 41,34.729164 41,35 L41,40.1875 C40.416664,40.395836 39.9375,40.755204 39.5625,41.265624 C39.1875,41.776044 39,42.354164 39,43 C39,43.833336 39.291664,44.541664 39.875,45.125 C40.458336,45.708336 41.166664,46 42,46 C42.833336,46 43.541664,45.708336 44.125,45.125 C44.708336,44.541664 45,43.833336 45,43 C45,42.354164 44.8125,41.776044 44.4375,41.265624 C44.0625,40.755204 43.583336,40.395836 43,40.1875 Z M43,30.0625 C43,30.041668 43,30.02604 43,30.015624 C43,30.005208 43,30 43,30 L43,28 L47,28 C47.270836,28 47.505208,27.901044 47.703124,27.703124 C47.901044,27.505208 48,27.270836 48,27 C48,26.729164 47.901044,26.494792 47.703124,26.296876 C47.505208,26.098956 47.270836,26 47,26 L37,26 C36.729164,26 36.494792,26.098956 36.296876,26.296876 C36.098956,26.494792 36,26.729164 36,27 C36,27.270836 36.098956,27.505208 36.296876,27.703124 C36.494792,27.901044 36.729164,28 37,28 L41,28 L41,30 C41,30 41,30.005208 41,30.015624 C41,30.02604 41,30.041668 41,30.0625 C39.333324,30.1875 37.765632,30.609372 36.296876,31.328124 C34.828116,32.04688 33.557296,32.984368 32.4843752,34.140624 C31.4114528,35.29688 30.5625032,36.635408 29.9375,38.156248 C29.3124969,39.677092 29,41.29166 29,43 C29,44.791676 29.3385383,46.47916 30.0156248,48.0625 C30.6927116,49.64584 31.6197856,51.026036 32.7968752,52.2031248 C33.973964,53.3802144 35.35416,54.3072884 36.9375,54.9843752 C38.52084,55.6614617 40.208324,56 42,56 C43.791676,56 45.47916,55.6614617 47.0625,54.9843752 C48.64584,54.3072884 50.026036,53.3802144 51.203124,52.2031248 C52.380216,51.026036 53.307288,49.64584 53.984376,48.0625 C54.66146,46.47916 55,44.791676 55,43 C55,41.29166 54.687504,39.677092 54.0625,38.156248 C53.437496,36.635408 52.588548,35.29688 51.515624,34.140624 C50.442704,32.984368 49.171884,32.04688 47.703124,31.328124 C46.234368,30.609372 44.666676,30.1875 43,30.0625 Z M42,54 C40.47916,54 39.052088,53.7135444 37.718752,53.1406248 C36.385408,52.5677056 35.218756,51.781256 34.218752,50.781248 C33.218744,49.781244 32.4322944,48.614588 31.8593752,47.281248 C31.2864556,45.947912 31,44.52084 31,43 C31,41.47916 31.2864556,40.052088 31.8593752,38.718752 C32.4322944,37.385412 33.218744,36.218756 34.218752,35.218752 C35.218756,34.218744 36.385408,33.432296 37.718752,32.859376 C39.052088,32.286456 40.47916,32 42,32 C43.52084,32 44.947912,32.286456 46.281248,32.859376 C47.614592,33.432296 48.781244,34.218744 49.781248,35.218752 C50.781256,36.218756 51.567704,37.385412 52.140624,38.718752 C52.713544,40.052088 53,41.47916 53,43 C53,44.52084 52.713544,45.947912 52.140624,47.281248 C51.567704,48.614588 50.781256,49.781244 49.781248,50.781248 C48.781244,51.781256 47.614592,52.5677056 46.281248,53.1406248 C44.947912,53.7135444 43.52084,54 42,54 Z" id="Page-1" fill="url(#linearGradient-3)"></path>
            </g>
        </g>
    </g>
</svg>