<?xml version="1.0" encoding="UTF-8"?>
<svg width="128px" height="128px" viewBox="0 0 128 128" version="1.1" xmlns="http://www.w3.org/2000/svg" xmlns:xlink="http://www.w3.org/1999/xlink">
    <!-- Generator: Sketch 47.1 (45422) - http://www.bohemiancoding.com/sketch -->
    <title>Group 24</title>
    <desc>Created with Sketch.</desc>
    <defs>
        <circle id="path-1" cx="41" cy="41" r="41"></circle>
        <filter x="-44.5%" y="-45.7%" width="189.0%" height="189.0%" filterUnits="objectBoundingBox" id="filter-2">
            <feOffset dx="0" dy="-1" in="SourceAlpha" result="shadowOffsetOuter1"></feOffset>
            <feGaussianBlur stdDeviation="12" in="shadowOffsetOuter1" result="shadowBlurOuter1"></feGaussianBlur>
            <feColorMatrix values="0 0 0 0 0.905882353   0 0 0 0 0.925490196   0 0 0 0 0.937254902  0 0 0 1 0" type="matrix" in="shadowBlurOuter1"></feColorMatrix>
        </filter>
        <linearGradient x1="50%" y1="0%" x2="50%" y2="100%" id="linearGradient-3">
            <stop stop-color="#FAD961" offset="0%"></stop>
            <stop stop-color="#F76B1C" offset="100%"></stop>
        </linearGradient>
    </defs>
    <g id="Page-1" stroke="none" stroke-width="1" fill="none" fill-rule="evenodd">
        <g id="01.Nguoi_Dung" transform="translate(-1134.000000, -958.000000)">
            <g id="Group-24" transform="translate(1157.000000, 982.000000)">
                <g id="Oval-Copy-2">
                    <use fill="black" fill-opacity="1" filter="url(#filter-2)" xlink:href="#path-1"></use>
                    <use fill="#FFFFFF" fill-rule="evenodd" xlink:href="#path-1"></use>
                </g>
                <path d="M41.03125,29.2800305 C39.1434353,29.2800305 37.3873574,29.6312486 35.7629573,30.333689 C34.1385572,31.0361295 32.7117434,32.0019761 31.4824695,33.23125 C30.2531952,34.4605239 29.2873511,35.8873377 28.5849085,37.5117378 C27.882466,39.1361379 27.53125,40.8922158 27.53125,42.7800305 C27.53125,44.6678452 27.882466,46.4239231 28.5849085,48.0483232 C29.2873511,49.6727232 30.2531952,51.0995371 31.4824695,52.328811 C32.7117434,53.5580853 34.1385572,54.5239294 35.7629573,55.226372 C37.3873574,55.9288145 39.1434353,56.2800305 41.03125,56.2800305 C42.8751609,56.2800305 44.6202681,55.9288145 46.2666137,55.226372 C47.9129636,54.5239294 49.3507566,53.5580853 50.5800305,52.328811 C51.8093044,51.0995371 52.775151,49.6727232 53.4775915,48.0483232 C54.1800319,46.4239231 54.53125,44.6678452 54.53125,42.7800305 C54.53125,40.8922158 54.1800319,39.1361379 53.4775915,37.5117378 C52.775151,35.8873377 51.8093044,34.4605239 50.5800305,33.23125 C49.3507566,32.0019761 47.9129636,31.0361295 46.2666137,30.333689 C44.6202681,29.6312486 42.8751609,29.2800305 41.03125,29.2800305 Z M41.03125,55.1605183 C39.3190464,55.1605183 37.7166215,54.8312534 36.2239329,54.1727134 C34.7312444,53.5141735 33.4141839,52.6361337 32.2727134,51.5385671 C31.1751468,50.3970966 30.297107,49.0800361 29.6385671,47.5873476 C28.9800271,46.094659 28.6507622,44.492234 28.6507622,42.7800305 C28.6507622,41.0678269 28.9800271,39.465402 29.6385671,37.9727134 C30.297107,36.4800249 31.1751468,35.1629643 32.2727134,34.0214939 C33.4141839,32.9239273 34.7312444,32.0458884 36.2239329,31.3873476 C37.7166215,30.7288068 39.3190464,30.3995427 41.03125,30.3995427 C42.7434536,30.3995427 44.3458785,30.7288068 45.8385671,31.3873476 C47.3312556,32.0458884 48.6263663,32.9239273 49.7239329,34.0214939 C50.8654034,35.1629643 51.7653921,36.4800249 52.4239329,37.9727134 C53.0824737,39.465402 53.4117378,41.0678269 53.4117378,42.7800305 C53.4117378,44.492234 53.0824737,46.094659 52.4239329,47.5873476 C51.7653921,49.0800361 50.8654034,50.3970966 49.7239329,51.5385671 C48.6263663,52.6361337 47.3312556,53.5141735 45.8385671,54.1727134 C44.3458785,54.8312534 42.7434536,55.1605183 41.03125,55.1605183 Z M48.0117378,46.0068598 C47.8800305,45.9190563 47.7483232,45.8971023 47.6166159,45.9410061 C47.4849085,45.9849099 47.375151,46.0727134 47.2873476,46.2044207 C46.9800291,46.8190577 46.6068612,47.3678326 46.1678354,47.8507622 C45.7288096,48.3336918 45.2458884,48.7288096 44.7190549,49.036128 C44.1483218,49.3873504 43.5556431,49.6507608 42.9410061,49.826372 C42.3263691,50.0019831 41.6897908,50.0897866 41.03125,50.0897866 C40.3288096,50.0897866 39.6702772,50.0019831 39.0556402,49.826372 C38.4410033,49.6507608 37.8702786,49.3873504 37.3434451,49.036128 C36.772712,48.7288096 36.2678368,48.3336918 35.828811,47.8507622 C35.3897852,47.3678326 35.0166173,46.8190577 34.7092988,46.2044207 C34.6653949,46.0727134 34.5666166,45.9849099 34.4129552,45.9410061 C34.2592981,45.8971023 34.1166159,45.9190563 33.9849085,46.0068598 C33.8532012,46.0507636 33.7653977,46.149542 33.7214939,46.3031991 C33.6775901,46.4568605 33.6775901,46.5995427 33.7214939,46.73125 C34.0727162,47.3897908 34.5007587,48.0044193 35.0056424,48.5751524 C35.5105218,49.1458856 36.0702716,49.628811 36.6849085,50.0239329 C37.3434493,50.3751552 38.0349064,50.6605155 38.7592967,50.8800305 C39.4836911,51.0995455 40.2410019,51.2092988 41.03125,51.2092988 C41.7775943,51.2092988 42.5129552,51.0995455 43.2373455,50.8800305 C43.9617399,50.6605155 44.653197,50.3751552 45.3117378,50.0239329 C45.9263748,49.628811 46.4861245,49.1458856 46.9910082,48.5751524 C47.4958877,48.0044193 47.9239301,47.3897908 48.2751524,46.73125 C48.3629559,46.5995427 48.3849099,46.4568605 48.3410061,46.3031991 C48.2971023,46.149542 48.187349,46.0507636 48.0117378,46.0068598 Z M38.1995427,39.9483232 C38.1995427,39.7288082 38.1556388,39.5202765 38.0678354,39.3227113 C37.9800319,39.1251503 37.8702744,38.9385685 37.7385671,38.7629573 C37.5629559,38.63125 37.3763741,38.5214925 37.1788089,38.433689 C36.9812479,38.3458856 36.7727162,38.3019817 36.5532012,38.3019817 C36.2897866,38.3019817 36.0593009,38.3458856 35.8617357,38.433689 C35.6641747,38.5214925 35.4775929,38.63125 35.3019817,38.7629573 C35.1702744,38.9385685 35.0605169,39.1251503 34.9727134,39.3227113 C34.8849099,39.5202765 34.8410061,39.7288082 34.8410061,39.9483232 C34.8410061,40.2117378 34.8849099,40.4422235 34.9727134,40.6397845 C35.0605169,40.8373497 35.1702744,41.0019817 35.3019817,41.133689 C35.4775929,41.3093002 35.6641747,41.4410075 35.8617357,41.528811 C36.0593009,41.6166144 36.2897866,41.6605183 36.5532012,41.6605183 C36.7727162,41.6605183 36.9812479,41.6166144 37.1788089,41.528811 C37.3763741,41.4410075 37.5629559,41.3093002 37.7385671,41.133689 C37.8702744,41.0019817 37.9800319,40.8373497 38.0678354,40.6397845 C38.1556388,40.4422235 38.1995427,40.2117378 38.1995427,39.9483232 Z M47.2214939,39.9483232 C47.2214939,39.7288082 47.1775901,39.5202765 47.0897866,39.3227113 C47.0019831,39.1251503 46.8702758,38.9385685 46.6946646,38.7629573 C46.5629573,38.63125 46.3873504,38.5214925 46.1678354,38.433689 C45.9483204,38.3458856 45.7288138,38.3019817 45.5092988,38.3019817 C45.2897838,38.3019817 45.0702772,38.3458856 44.8507622,38.433689 C44.6312472,38.5214925 44.4556402,38.63125 44.3239329,38.7629573 C44.1483218,38.9385685 44.0166144,39.1251503 43.928811,39.3227113 C43.8410075,39.5202765 43.7971037,39.7288082 43.7971037,39.9483232 C43.7971037,40.2117378 43.8410075,40.4422235 43.928811,40.6397845 C44.0166144,40.8373497 44.1483218,41.0019817 44.3239329,41.133689 C44.4556402,41.3093002 44.6312472,41.4410075 44.8507622,41.528811 C45.0702772,41.6166144 45.2897838,41.6605183 45.5092988,41.6605183 C45.7288138,41.6605183 45.9483204,41.6166144 46.1678354,41.528811 C46.3873504,41.4410075 46.5629573,41.3093002 46.6946646,41.133689 C46.8702758,41.0019817 47.0019831,40.8373497 47.0897866,40.6397845 C47.1775901,40.4422235 47.2214939,40.2117378 47.2214939,39.9483232 Z" id="Page-1" fill="url(#linearGradient-3)"></path>
            </g>
        </g>
    </g>
</svg>