<svg width="128" height="128" viewBox="0 0 128 128" xmlns="http://www.w3.org/2000/svg" xmlns:xlink="http://www.w3.org/1999/xlink"><title>Group 28</title><defs><circle id="b" cx="41" cy="41" r="41"/><filter x="-44.5%" y="-45.7%" width="189%" height="189%" filterUnits="objectBoundingBox" id="a"><feOffset dy="-1" in="SourceAlpha" result="shadowOffsetOuter1"/><feGaussianBlur stdDeviation="12" in="shadowOffsetOuter1" result="shadowBlurOuter1"/><feColorMatrix values="0 0 0 0 0.905882353 0 0 0 0 0.925490196 0 0 0 0 0.937254902 0 0 0 1 0" in="shadowBlurOuter1"/></filter><linearGradient x1="0%" y1="0%" y2="100%" id="c"><stop stop-color="#23BCBA" offset="0%"/><stop stop-color="#45E994" offset="100%"/></linearGradient></defs><g fill="none" fill-rule="evenodd"><g transform="translate(23 24)"><use fill="#000" filter="url(#a)" xlink:href="#b"/><use fill="#FFF" xlink:href="#b"/></g><path d="M46.333 47.102c.993 0 1.834.353 2.521 1.06.688.706 1.031 1.537 1.031 2.492 0 .993-.353 1.843-1.06 2.55-.706.706-1.537 1.059-2.492 1.059-.955 0-1.785-.353-2.492-1.06-.706-.706-1.06-1.556-1.06-2.55 0-.381.02-.649.058-.801l-8.651-5.042c-.726.65-1.566.974-2.521.974-.993 0-1.853-.363-2.578-1.089C28.363 43.97 28 43.11 28 42.117c0-.993.363-1.852 1.089-2.578.725-.726 1.585-1.088 2.578-1.088.955 0 1.795.324 2.52.973l8.594-4.984c-.076-.382-.114-.668-.114-.86 0-.992.363-1.852 1.088-2.577.726-.726 1.585-1.089 2.578-1.089.993 0 1.853.363 2.578 1.089.726.725 1.089 1.585 1.089 2.578 0 .993-.363 1.852-1.089 2.578-.725.726-1.585 1.088-2.578 1.088-.916 0-1.757-.343-2.52-1.03l-8.594 5.04c.076.383.114.67.114.86 0 .191-.038.478-.114.86l8.708 5.041a3.509 3.509 0 0 1 2.406-.916z" fill="url(#c)" transform="translate(23 24)"/></g></svg>