<svg width="128" height="128" viewBox="0 0 128 128" xmlns="http://www.w3.org/2000/svg" xmlns:xlink="http://www.w3.org/1999/xlink"><title>Group 27</title><defs><circle id="b" cx="41" cy="41" r="41"/><filter x="-44.5%" y="-45.7%" width="189%" height="189%" filterUnits="objectBoundingBox" id="a"><feOffset dy="-1" in="SourceAlpha" result="shadowOffsetOuter1"/><feGaussianBlur stdDeviation="12" in="shadowOffsetOuter1" result="shadowBlurOuter1"/><feColorMatrix values="0 0 0 0 0.905882353 0 0 0 0 0.925490196 0 0 0 0 0.937254902 0 0 0 1 0" in="shadowBlurOuter1"/></filter><linearGradient x1="0%" y1="0%" y2="100%" id="c"><stop stop-color="#EFBFD5" offset="0%"/><stop stop-color="#9D61FD" offset="100%"/></linearGradient></defs><g fill="none" fill-rule="evenodd"><g transform="translate(23 24)"><use fill="#000" filter="url(#a)" xlink:href="#b"/><use fill="#FFF" xlink:href="#b"/></g><path d="M36 36.286c-.417 0-.759-.134-1.027-.402-.268-.268-.402-.61-.402-1.027V33.43c0-.417.134-.76.402-1.027.268-.268.61-.402 1.027-.402.417 0 .759.134 1.027.402.268.268.402.61.402 1.027v1.428c0 .417-.134.76-.402 1.027-.268.268-.61.402-1.027.402zm10 0c-.417 0-.759-.134-1.027-.402-.268-.268-.402-.61-.402-1.027V33.43c0-.417.134-.76.402-1.027.268-.268.61-.402 1.027-.402.417 0 .759.134 1.027.402.268.268.402.61.402 1.027v1.428c0 .417-.134.76-.402 1.027-.268.268-.61.402-1.027.402zm4.643-2.857c.238 0 .357.119.357.357v17.857c0 .238-.119.357-.357.357H31.357c-.238 0-.357-.119-.357-.357V33.786c0-.238.119-.357.357-.357h2.5v1.83c0 .476.216.885.647 1.228.432.342.93.513 1.496.513.565 0 1.064-.171 1.496-.513.431-.343.647-.752.647-1.228v-1.83h5.714v1.83c0 .476.223.885.67 1.228a2.43 2.43 0 0 0 1.518.513c.535 0 1.019-.171 1.45-.513.432-.343.648-.752.648-1.228v-1.83h2.5zm-1.786 16.428V38.43H33.143v11.428h15.714z" fill="url(#c)" transform="translate(23 24)"/></g></svg>