<svg width="128" height="128" viewBox="0 0 128 128" xmlns="http://www.w3.org/2000/svg" xmlns:xlink="http://www.w3.org/1999/xlink"><title>Group 4</title><defs><circle id="b" cx="41" cy="41" r="41"/><filter x="-44.5%" y="-45.7%" width="189%" height="189%" filterUnits="objectBoundingBox" id="a"><feOffset dy="-1" in="SourceAlpha" result="shadowOffsetOuter1"/><feGaussianBlur stdDeviation="12" in="shadowOffsetOuter1" result="shadowBlurOuter1"/><feColorMatrix values="0 0 0 0 0.905882353 0 0 0 0 0.925490196 0 0 0 0 0.937254902 0 0 0 1 0" in="shadowBlurOuter1"/></filter><linearGradient x1="326.519%" y1="0%" x2="50%" y2="100%" id="c"><stop stop-color="#357FC7" offset="0%"/><stop stop-color="#41BBEC" offset="100%"/></linearGradient></defs><g fill="none" fill-rule="evenodd"><g transform="translate(23 24)"><use fill="#000" filter="url(#a)" xlink:href="#b"/><use fill="#FFF" xlink:href="#b"/></g><path d="M33.908 38.745v18.657c0 .486.178.907.534 1.262.35.35.765.526 1.243.531a1.732 1.732 0 0 0 1.243-.53c.356-.356.534-.777.534-1.263V38.745c.534-.187 2.538-1.968 2.538-2.539v-7.504a.863.863 0 0 0-.267-.63.868.868 0 0 0-.633-.267.866.866 0 0 0-.633.266.862.862 0 0 0-.267.631v5.835c0 .243-.09.454-.267.631a.865.865 0 0 1-.633.266.864.864 0 0 1-.633-.266.862.862 0 0 1-.267-.63v-5.836a.863.863 0 0 0-.267-.63.866.866 0 0 0-.633-.267.866.866 0 0 0-.633.266.862.862 0 0 0-.267.631v5.835c0 .243-.09.454-.267.631a.865.865 0 0 1-.633.266.864.864 0 0 1-.633-.266.86.86 0 0 1-.267-.63v-5.836a.862.862 0 0 0-.267-.63.867.867 0 0 0-.633-.267.866.866 0 0 0-.633.266.864.864 0 0 0-.267.631v7.504c0 .57 2.373 2.352 2.908 2.54z" fill="url(#c)" fill-rule="nonzero" transform="translate(23 24)"/><path d="M36.22 58.405c-.053 0-.103-.015-.156-.015-.052 0-.1.015-.155.015h.31zm11.454.805c-.053 0-.103-.015-.155-.015-.053 0-.103.015-.155.015h.31zm-3.975-16.202h1.934v14.41c0 .482.169.9.506 1.251.332.346.725.52 1.178.526.452-.005.845-.18 1.177-.526.337-.352.506-.769.506-1.25v-29.53a.875.875 0 0 0-.253-.625.804.804 0 0 0-.6-.264h-.612c-1.172 0-2.176.436-3.01 1.306-.835.871-1.252 1.918-1.252 3.14v11.118c0 .12.042.224.126.312a.4.4 0 0 0 .3.132z" fill="url(#c)" fill-rule="nonzero" transform="translate(23 24)"/></g></svg>