<svg width="128" height="128" viewBox="0 0 128 128" xmlns="http://www.w3.org/2000/svg" xmlns:xlink="http://www.w3.org/1999/xlink"><title>Group 29</title><defs><circle id="b" cx="41" cy="41" r="41"/><filter x="-44.5%" y="-45.7%" width="189%" height="189%" filterUnits="objectBoundingBox" id="a"><feOffset dy="-1" in="SourceAlpha" result="shadowOffsetOuter1"/><feGaussianBlur stdDeviation="12" in="shadowOffsetOuter1" result="shadowBlurOuter1"/><feColorMatrix values="0 0 0 0 0.905882353 0 0 0 0 0.925490196 0 0 0 0 0.937254902 0 0 0 1 0" in="shadowBlurOuter1"/></filter><linearGradient x1="0%" y1="0%" y2="100%" id="c"><stop stop-color="#FFA7E7" offset="0%"/><stop stop-color="#EA6362" offset="100%"/></linearGradient></defs><g fill="none" fill-rule="evenodd"><g transform="translate(23 24)"><use fill="#000" filter="url(#a)" xlink:href="#b"/><use fill="#FFF" xlink:href="#b"/></g><path d="M55 35.812V50.85h-2.563V55h-1.379l-4.15-4.15H35.812v-7.812H28V28h19.188v7.812H55zM51.437 49.85H54V36.812h-7.812V29H29v13.038h7.812v7.812h10.51l4.115 4.114V49.85zm0 4.65l.5-.5h-.672l.354.146-.182-.182v.536zM35.812 41v-5.188h9.338v-5.774H30.038V41h5.774zm1 1h-7.774V29.038H46.15v7.774h-9.338V42zm16.15-4.15H37.85v10.962h9.9l2.65 2.65v-2.65h2.562V37.85zM36.85 49.812V36.85h17.112v12.962H51.4v4.064l-4.064-4.064H36.85z" fill="url(#c)" fill-rule="nonzero" transform="translate(23 24)"/></g></svg>