<svg width="128" height="128" viewBox="0 0 128 128" xmlns="http://www.w3.org/2000/svg" xmlns:xlink="http://www.w3.org/1999/xlink"><title>Group 25</title><defs><circle id="b" cx="41" cy="41" r="41"/><filter x="-44.5%" y="-45.7%" width="189%" height="189%" filterUnits="objectBoundingBox" id="a"><feOffset dy="-1" in="SourceAlpha" result="shadowOffsetOuter1"/><feGaussianBlur stdDeviation="12" in="shadowOffsetOuter1" result="shadowBlurOuter1"/><feColorMatrix values="0 0 0 0 0.905882353 0 0 0 0 0.925490196 0 0 0 0 0.937254902 0 0 0 1 0" in="shadowBlurOuter1"/></filter><linearGradient x1="0%" y1="0%" y2="100%" id="c"><stop stop-color="#45E0A7" offset="0%"/><stop stop-color="#D5E969" offset="100%"/></linearGradient></defs><g fill="none" fill-rule="evenodd"><g transform="translate(23 24)"><use fill="#000" filter="url(#a)" xlink:href="#b"/><use fill="#FFF" xlink:href="#b"/></g><path d="M31.003 41.013c.015-.336.13-.66.343-.973a2.32 2.32 0 0 1 .921-.818 2.147 2.147 0 0 1 1.334-.212c.64.06 1.228.007 1.762-.16 1.442-.466 3.307-1.843 5.596-4.132a6.454 6.454 0 0 1 2.97-1.716 6.56 6.56 0 0 1 3.393 0c1.13.297 2.117.87 2.964 1.716a6.454 6.454 0 0 1 1.717 2.97 6.56 6.56 0 0 1 0 3.393 6.455 6.455 0 0 1-1.717 2.964 34.234 34.234 0 0 0-1.682 1.797 21.98 21.98 0 0 0-1.19 1.482 11.49 11.49 0 0 0-.773 1.213 7.01 7.01 0 0 0-.452.967c-.091.26-.156.519-.194.778-.039.26-.054.466-.046.618.007.153.019.317.034.492a2.144 2.144 0 0 1-.217 1.35 2.39 2.39 0 0 1-.813.928 1.953 1.953 0 0 1-.973.337 3.212 3.212 0 0 1-1.087-.143 12.58 12.58 0 0 1-.721-.183 7.895 7.895 0 0 1-.675-.24 12.024 12.024 0 0 1-1.911-.938 17.596 17.596 0 0 1-1.19-.779 22.9 22.9 0 0 1-2.758-2.357 24.484 24.484 0 0 1-1.196-1.282 18.17 18.17 0 0 1-.962-1.202c-.27-.373-.518-.736-.744-1.087-.225-.35-.415-.68-.572-.99a19.906 19.906 0 0 1-.406-.847 8.278 8.278 0 0 1-.286-.72 9.568 9.568 0 0 1-.275-.945 3.06 3.06 0 0 1-.046-.194 3.325 3.325 0 0 1-.148-1.087zm2.3 1.533c.076.465.26.99.55 1.574.29.583.7 1.226 1.23 1.928s1.13 1.389 1.802 2.06c1.38 1.373 2.712 2.388 3.994 3.044 1.282.656 2.144.76 2.586.309.328-.35.344-.948.046-1.791-.297-.843-.847-1.783-1.648-2.821a3.417 3.417 0 0 1-.332.4 2.59 2.59 0 0 1-1.888.767 2.59 2.59 0 0 1-1.888-.766 2.585 2.585 0 0 1-.778-1.9c0-.748.259-1.381.778-1.9.099-.084.229-.187.389-.309-1.038-.8-1.976-1.352-2.815-1.654-.84-.3-1.435-.288-1.786.04-.236.214-.316.554-.24 1.02z" fill="url(#c)" transform="translate(23 24)"/></g></svg>