<svg width="128" height="128" viewBox="0 0 128 128" xmlns="http://www.w3.org/2000/svg" xmlns:xlink="http://www.w3.org/1999/xlink"><title>Group 26</title><defs><circle id="b" cx="41" cy="41" r="41"/><filter x="-44.5%" y="-45.7%" width="189%" height="189%" filterUnits="objectBoundingBox" id="a"><feOffset dy="-1" in="SourceAlpha" result="shadowOffsetOuter1"/><feGaussianBlur stdDeviation="12" in="shadowOffsetOuter1" result="shadowBlurOuter1"/><feColorMatrix values="0 0 0 0 0.905882353 0 0 0 0 0.925490196 0 0 0 0 0.937254902 0 0 0 1 0" in="shadowBlurOuter1"/></filter><linearGradient x1="100%" y1="100%" x2="0%" y2="0%" id="c"><stop stop-color="#FBC79A" offset="0%"/><stop stop-color="#D73E68" offset="100%"/></linearGradient></defs><g fill="none" fill-rule="evenodd"><g transform="translate(23 24)"><use fill="#000" filter="url(#a)" xlink:href="#b"/><use fill="#FFF" xlink:href="#b"/></g><path d="M55 43.5c0 1-.262 1.892-.786 2.676a4.514 4.514 0 0 1-2.067 1.706v2.177a.935.935 0 0 1-.262.662.845.845 0 0 1-.641.279H29.756a.845.845 0 0 1-.64-.28.935.935 0 0 1-.263-.661v-2.177a4.514 4.514 0 0 1-2.067-1.706C26.262 45.392 26 44.5 26 43.5c0-1 .262-1.892.786-2.676a4.514 4.514 0 0 1 2.067-1.706V36.94a.94.94 0 0 1 .262-.662.878.878 0 0 1 .67-.279h21.459a.84.84 0 0 1 .64.28.935.935 0 0 1 .263.661v2.177a4.514 4.514 0 0 1 2.067 1.706c.524.784.786 1.676.786 2.676zm-17.82 0h-3.697v.941h3.698V43.5zm4.426-3.206a1.339 1.339 0 0 0-.465-.309 1.666 1.666 0 0 0-.612-.103c-.233 0-.437.035-.611.103-.175.069-.33.172-.466.31a1.556 1.556 0 0 0-.306.558 2.67 2.67 0 0 0-.102.794c0 .294.034.554.102.78.068.225.17.406.306.544.136.156.262.27.378.338.117.068.291.103.524.103.233 0 .466-.035.7-.103a1.14 1.14 0 0 0 .552-.338c.136-.138.233-.319.292-.545.058-.225.087-.485.087-.779 0-.314-.03-.578-.087-.794a1.396 1.396 0 0 0-.292-.559zm3.145-.559l-4.746 7.53h.932l4.746-7.53h-.932zm1.485 4.324a1.19 1.19 0 0 0-.466-.338 1.666 1.666 0 0 0-.611-.103c-.233 0-.437.034-.612.103a1.19 1.19 0 0 0-.466.338 1.5 1.5 0 0 0-.276.544 2.706 2.706 0 0 0-.102.78c0 .313.034.583.102.808a1.5 1.5 0 0 0 .276.544 1.49 1.49 0 0 0 1.107.441 1.414 1.414 0 0 0 1.048-.441c.136-.137.238-.318.306-.544a2.82 2.82 0 0 0 .102-.809c0-.294-.034-.554-.102-.78a1.283 1.283 0 0 0-.306-.543zm-1.077 2.382a.361.361 0 0 1-.19-.044.423.423 0 0 1-.13-.132c-.059-.06-.098-.162-.117-.31a4.552 4.552 0 0 1-.03-.573c0-.215.01-.397.03-.544a.725.725 0 0 1 .116-.338.295.295 0 0 1 .131-.118.512.512 0 0 1 .19-.03.53.53 0 0 1 .174.03c.059.02.107.06.146.118.039.078.073.191.102.338.029.147.043.329.043.544 0 .236-.014.427-.043.574a.93.93 0 0 1-.102.309.385.385 0 0 1-.32.176zm-4.63-3.735a.361.361 0 0 1-.19-.044.423.423 0 0 1-.13-.133.725.725 0 0 1-.117-.338 4.261 4.261 0 0 1-.029-.544c0-.216.01-.397.03-.544a.725.725 0 0 1 .116-.338.423.423 0 0 1 .13-.133.361.361 0 0 1 .19-.044c.058 0 .112.015.16.044.049.03.092.074.131.133a.725.725 0 0 1 .117.338c.02.147.029.328.029.544 0 .216-.01.397-.03.544a.725.725 0 0 1-.116.338.423.423 0 0 1-.13.133.303.303 0 0 1-.16.044z" fill="url(#c)" transform="translate(23 24)"/></g></svg>