<svg width="128" height="128" viewBox="0 0 128 128" xmlns="http://www.w3.org/2000/svg" xmlns:xlink="http://www.w3.org/1999/xlink"><title>Group 5</title><defs><circle id="b" cx="41" cy="41" r="41"/><filter x="-44.5%" y="-45.7%" width="189%" height="189%" filterUnits="objectBoundingBox" id="a"><feOffset dy="-1" in="SourceAlpha" result="shadowOffsetOuter1"/><feGaussianBlur stdDeviation="12" in="shadowOffsetOuter1" result="shadowBlurOuter1"/><feColorMatrix values="0 0 0 0 0.905882353 0 0 0 0 0.925490196 0 0 0 0 0.937254902 0 0 0 1 0" in="shadowBlurOuter1"/></filter><linearGradient x1="49.969%" y1="-.067%" x2="49.969%" y2="99.676%" id="c"><stop stop-color="#48B7E9" offset="0%"/><stop stop-color="#B8F6C6" offset="100%"/></linearGradient></defs><g fill="none" fill-rule="evenodd"><g transform="translate(23 24)"><use fill="#000" filter="url(#a)" xlink:href="#b"/><use fill="#FFF" xlink:href="#b"/></g><path d="M43 40.188V35a.961.961 0 0 0-.297-.703A.961.961 0 0 0 42 34a.961.961 0 0 0-.703.297A.961.961 0 0 0 41 35v5.188a3.004 3.004 0 0 0-1.438 1.078A2.856 2.856 0 0 0 39 43c0 .833.292 1.542.875 2.125A2.893 2.893 0 0 0 42 46c.833 0 1.542-.292 2.125-.875A2.893 2.893 0 0 0 45 43c0-.646-.188-1.224-.563-1.734A3.004 3.004 0 0 0 43 40.188zm0-10.126V28h4c.27 0 .505-.099.703-.297A.961.961 0 0 0 48 27a.961.961 0 0 0-.297-.703A.961.961 0 0 0 47 26H37a.961.961 0 0 0-.703.297A.961.961 0 0 0 36 27c0 .27.099.505.297.703A.961.961 0 0 0 37 28h4v2.063a12.772 12.772 0 0 0-4.703 1.265 12.854 12.854 0 0 0-3.813 2.813 13.248 13.248 0 0 0-2.547 4.015A12.618 12.618 0 0 0 29 43c0 1.792.339 3.48 1.016 5.063a13.046 13.046 0 0 0 2.78 4.14 13.046 13.046 0 0 0 4.142 2.781C38.52 55.661 40.208 56 42 56c1.792 0 3.48-.339 5.063-1.016a13.046 13.046 0 0 0 4.14-2.78 13.046 13.046 0 0 0 2.781-4.142C54.661 46.48 55 44.792 55 43c0-1.708-.312-3.323-.938-4.844a13.248 13.248 0 0 0-2.546-4.015 12.854 12.854 0 0 0-3.813-2.813A12.772 12.772 0 0 0 43 30.063zM42 54c-1.52 0-2.948-.286-4.281-.86a11.09 11.09 0 0 1-3.5-2.359c-1-1-1.787-2.166-2.36-3.5A10.728 10.728 0 0 1 31 43c0-1.52.286-2.948.86-4.281a11.09 11.09 0 0 1 2.359-3.5c1-1 2.166-1.787 3.5-2.36C39.052 32.286 40.479 32 42 32c1.52 0 2.948.286 4.281.86a11.09 11.09 0 0 1 3.5 2.359c1 1 1.787 2.166 2.36 3.5.573 1.333.859 2.76.859 4.281 0 1.52-.286 2.948-.86 4.281a11.09 11.09 0 0 1-2.359 3.5c-1 1-2.166 1.787-3.5 2.36-1.333.573-2.76.859-4.281.859z" fill="url(#c)" transform="translate(23 24)"/></g></svg>