<svg width="128" height="128" viewBox="0 0 128 128" xmlns="http://www.w3.org/2000/svg" xmlns:xlink="http://www.w3.org/1999/xlink"><title>Group 3</title><defs><circle id="b" cx="41" cy="41" r="41"/><filter x="-44.5%" y="-45.7%" width="189%" height="189%" filterUnits="objectBoundingBox" id="a"><feOffset dy="-1" in="SourceAlpha" result="shadowOffsetOuter1"/><feGaussianBlur stdDeviation="12" in="shadowOffsetOuter1" result="shadowBlurOuter1"/><feColorMatrix values="0 0 0 0 0.905882353 0 0 0 0 0.925490196 0 0 0 0 0.937254902 0 0 0 1 0" in="shadowBlurOuter1"/></filter><linearGradient x1="49.957%" y1="100.086%" x2="49.957%" y2=".159%" id="c"><stop stop-color="#FCB3A4" offset="0%"/><stop stop-color="#DA5899" offset="100%"/></linearGradient></defs><g fill="none" fill-rule="evenodd"><g transform="translate(23 24)"><use fill="#000" filter="url(#a)" xlink:href="#b"/><use fill="#FFF" xlink:href="#b"/></g><path d="M40.5 41.847c.935 0 1.732-.33 2.39-.988a3.257 3.257 0 0 0 .99-2.39c0-.936-.33-1.733-.99-2.392a3.257 3.257 0 0 0-2.39-.988c-.935 0-1.732.33-2.39.988a3.257 3.257 0 0 0-.99 2.391c0 .935.33 1.732.99 2.391a3.257 3.257 0 0 0 2.39.988zm0-12.879c2.635 0 4.878.925 6.727 2.774C49.076 33.59 50 35.832 50 38.468c0 1.318-.33 2.827-.988 4.527a27.907 27.907 0 0 1-2.391 4.782 95.03 95.03 0 0 1-2.774 4.176c-.914 1.296-1.69 2.327-2.327 3.092L40.5 56.13c-.255-.297-.595-.69-1.02-1.18-.425-.488-1.19-1.466-2.295-2.932a49.14 49.14 0 0 1-2.901-4.272c-.83-1.381-1.584-2.944-2.264-4.686-.68-1.743-1.02-3.273-1.02-4.59 0-2.636.924-4.878 2.773-6.727 1.85-1.85 4.092-2.774 6.727-2.774z" fill="url(#c)" transform="translate(23 24)"/></g></svg>