<svg width="128" height="128" viewBox="0 0 128 128" xmlns="http://www.w3.org/2000/svg" xmlns:xlink="http://www.w3.org/1999/xlink"><title>Group 23</title><defs><circle id="b" cx="41" cy="41" r="41"/><filter x="-44.5%" y="-45.7%" width="189%" height="189%" filterUnits="objectBoundingBox" id="a"><feOffset dy="-1" in="SourceAlpha" result="shadowOffsetOuter1"/><feGaussianBlur stdDeviation="12" in="shadowOffsetOuter1" result="shadowBlurOuter1"/><feColorMatrix values="0 0 0 0 0.905882353 0 0 0 0 0.925490196 0 0 0 0 0.937254902 0 0 0 1 0" in="shadowBlurOuter1"/></filter><linearGradient x1="50%" y1="100%" x2="50%" y2="0%" id="c"><stop stop-color="#41BEED" offset="0%"/><stop stop-color="#3064B6" offset="100%"/></linearGradient></defs><g transform="translate(23 24)" fill="none" fill-rule="evenodd"><use fill="#000" filter="url(#a)" xlink:href="#b"/><use fill="#FFF" xlink:href="#b"/><path d="M41.75 30c-4.43.027-8.043 1.287-10.751 3.742-2.266 2.055-3.296 4.463-3.703 5.71-.014.047-.035.1-.049.147h-2.003c-.684 0-1.244.54-1.244 1.2 0 .66.56 1.201 1.244 1.201h2.97c.609 0 1.127-.42 1.223-1 0 0 .063-.32.228-.821.767-2.321 3.476-7.724 12.098-7.778.684-.006 1.237-.547 1.237-1.207S42.433 30 41.75 30z" fill="url(#c)" fill-rule="nonzero"/><path d="M54.432 38.086h-.161c-.731-1.781-1.898-3.4-3.427-4.739-.148-.68.02-1.42.503-2.203a2.06 2.06 0 0 0-.007-2.195 1.993 1.993 0 0 0-1.958-.932c-2.777.354-4.272 1.788-5.03 2.937a1.23 1.23 0 0 0 .329 1.7c.55.38 1.3.231 1.676-.333.57-.864 1.429-1.442 2.542-1.727-.537 1.17-.664 2.366-.355 3.501.026.34.187.653.442.864 1.576 1.291 2.716 2.923 3.3 4.725.16.51.637.85 1.166.843h.98c.087 0 .16.074.16.163v3.413a.164.164 0 0 1-.16.163h-.946c-.53 0-1 .354-1.153.863-.517 1.7-1.53 3.264-2.938 4.535l-.013.014s-.007 0-.007.007l-.16.142c-.008.007-.021.014-.028.02-1.73 1.592-1.904 3.482-1.918 4.019v.68h-3.567v-1.299c0-.347-.148-.68-.403-.91a1.185 1.185 0 0 0-.932-.307c-.483.055-.965.075-1.442.075-.617 0-1.234-.04-1.837-.122a1.21 1.21 0 0 0-.96.292 1.24 1.24 0 0 0-.415.925v1.352H34.14c-.054-.924-.362-3.08-2.032-4.82-.731-.768-1.388-1.774-1.952-3.012-.006-.013-.013-.034-.02-.047a9.38 9.38 0 0 1-.75-2.033c0-.014-.008-.02-.008-.034v-.007a1.246 1.246 0 0 0-.536-.748 1.193 1.193 0 0 0-1.348.061 1.24 1.24 0 0 0-.45 1.326c.215.87.53 1.727.94 2.536.677 1.475 1.482 2.706 2.4 3.665 1.127 1.176 1.321 2.665 1.355 3.277v.387c0 .041.007.089.007.13.1.999.939 1.767 1.931 1.767h4.507c1.073 0 1.944-.884 1.944-1.972v-.49c.383.021.772.028 1.16.014v.47c0 1.087.872 1.971 1.945 1.971h4.507c1.073 0 1.945-.884 1.945-1.971v-1.115c.006-.238.1-1.299 1.113-2.244.06-.048.114-.102.174-.15.02-.02.04-.034.06-.054 1.483-1.346 2.61-2.971 3.307-4.745h.087c1.415 0 2.575-1.17 2.575-2.611V40.69c0-1.428-1.153-2.604-2.568-2.604z" fill="url(#c)" fill-rule="nonzero"/><circle fill="url(#c)" fill-rule="nonzero" cx="48.5" cy="38.5" r="1.5"/></g></svg>