<svg width="128" height="128" viewBox="0 0 128 128" xmlns="http://www.w3.org/2000/svg" xmlns:xlink="http://www.w3.org/1999/xlink"><title>Group 24</title><defs><circle id="b" cx="41" cy="41" r="41"/><filter x="-44.5%" y="-45.7%" width="189%" height="189%" filterUnits="objectBoundingBox" id="a"><feOffset dy="-1" in="SourceAlpha" result="shadowOffsetOuter1"/><feGaussianBlur stdDeviation="12" in="shadowOffsetOuter1" result="shadowBlurOuter1"/><feColorMatrix values="0 0 0 0 0.905882353 0 0 0 0 0.925490196 0 0 0 0 0.937254902 0 0 0 1 0" in="shadowBlurOuter1"/></filter><linearGradient x1="50%" y1="0%" x2="50%" y2="100%" id="c"><stop stop-color="#FAD961" offset="0%"/><stop stop-color="#F76B1C" offset="100%"/></linearGradient></defs><g fill="none" fill-rule="evenodd"><g transform="translate(23 24)"><use fill="#000" filter="url(#a)" xlink:href="#b"/><use fill="#FFF" xlink:href="#b"/></g><path d="M41.031 29.28c-1.888 0-3.644.351-5.268 1.054a13.663 13.663 0 0 0-7.178 7.178c-.703 1.624-1.054 3.38-1.054 5.268s.351 3.644 1.054 5.268a13.663 13.663 0 0 0 7.178 7.178c1.624.703 3.38 1.054 5.268 1.054a13.2 13.2 0 0 0 5.236-1.054 13.56 13.56 0 0 0 7.21-7.178c.703-1.624 1.054-3.38 1.054-5.268s-.351-3.644-1.053-5.268a13.56 13.56 0 0 0-7.211-7.178 13.2 13.2 0 0 0-5.236-1.054zm0 25.88c-1.712 0-3.314-.329-4.807-.987a13.525 13.525 0 0 1-3.951-2.634 13.525 13.525 0 0 1-2.634-3.952c-.659-1.492-.988-3.095-.988-4.807 0-1.712.329-3.315.988-4.807a13.525 13.525 0 0 1 2.634-3.952 13.525 13.525 0 0 1 3.95-2.634c1.494-.658 3.096-.987 4.808-.987 1.712 0 3.315.329 4.808.987a12.66 12.66 0 0 1 3.885 2.634 12.902 12.902 0 0 1 2.7 3.952c.658 1.492.988 3.095.988 4.807 0 1.712-.33 3.315-.988 4.807a12.902 12.902 0 0 1-2.7 3.952 12.66 12.66 0 0 1-3.885 2.634c-1.493.658-3.096.988-4.808.988zm6.98-9.153a.435.435 0 0 0-.394-.066.635.635 0 0 0-.33.263 7.254 7.254 0 0 1-1.12 1.647 6.133 6.133 0 0 1-1.448 1.185 6.917 6.917 0 0 1-3.688 1.054 7.162 7.162 0 0 1-1.975-.264 6.077 6.077 0 0 1-1.713-.79 5.66 5.66 0 0 1-1.514-1.185 7.254 7.254 0 0 1-1.12-1.647c-.044-.131-.142-.22-.296-.263a.493.493 0 0 0-.428.066c-.132.044-.22.143-.264.296a.711.711 0 0 0 0 .428 9.58 9.58 0 0 0 1.285 1.844 8.049 8.049 0 0 0 1.679 1.449c.658.351 1.35.637 2.074.856a7.791 7.791 0 0 0 4.478 0 11.51 11.51 0 0 0 2.075-.856 8.049 8.049 0 0 0 1.679-1.449 9.58 9.58 0 0 0 1.284-1.844.493.493 0 0 0 .066-.428c-.044-.153-.154-.252-.33-.296zM38.2 39.948c0-.22-.044-.428-.132-.625a2.88 2.88 0 0 0-.33-.56 2.88 2.88 0 0 0-.56-.33 1.523 1.523 0 0 0-.625-.131 1.69 1.69 0 0 0-.691.132 2.88 2.88 0 0 0-.56.329 2.88 2.88 0 0 0-.33.56 1.523 1.523 0 0 0-.131.625 1.628 1.628 0 0 0 .461 1.186c.176.175.362.307.56.395.197.088.428.132.691.132.22 0 .428-.044.626-.132.197-.088.384-.22.56-.395.131-.132.241-.297.329-.494a1.69 1.69 0 0 0 .132-.692zm9.021 0c0-.22-.043-.428-.131-.625a1.868 1.868 0 0 0-.395-.56 1.546 1.546 0 0 0-.527-.33 1.762 1.762 0 0 0-.659-.131c-.22 0-.439.044-.658.132-.22.087-.395.197-.527.329a1.868 1.868 0 0 0-.395.56 1.523 1.523 0 0 0-.132.625c0 .264.044.494.132.692.088.197.22.362.395.494.132.175.307.307.527.395.22.088.439.132.658.132.22 0 .44-.044.659-.132.22-.088.395-.22.527-.395.175-.132.307-.297.395-.494a1.69 1.69 0 0 0 .131-.692z" fill="url(#c)" transform="translate(23 24)"/></g></svg>